<svg height="512" viewBox="0 0 64 64" width="512" xmlns="http://www.w3.org/2000/svg"><path d="m59 33h-2v-28a3.009 3.009 0 0 0 -3-3h-12a3.009 3.009 0 0 0 -3 3v3h-6a1 1 0 0 0 -1 1v4a1 1 0 0 0 1 1h14a1 1 0 0 0 1-1v-4a1 1 0 0 0 -1-1h-6v-3a1 1 0 0 1 1-1h12a1 1 0 0 1 1 1v28h-50a3 3 0 0 0 0 6v14a3.009 3.009 0 0 0 3 3v5a1 1 0 0 0 1 1h4a1 1 0 0 0 .99-.84l.86-5.16h34.3l.86 5.16a1 1 0 0 0 .99.84h4a1 1 0 0 0 1-1v-5a3.009 3.009 0 0 0 3-3v-14a3 3 0 0 0 0-6zm-13-23v2h-12v-2zm-33.85 50h-2.15v-4h2.82zm41.85 0h-2.15l-.67-4h2.82zm3-7a1 1 0 0 1 -1 1h-48a1 1 0 0 1 -1-1v-14h50zm2-16h-54a1 1 0 0 1 0-2h54a1 1 0 0 1 0 2z"/><path d="m33 16h2v2h-2z"/><path d="m33 20h2v2h-2z"/><path d="m37 16h2v2h-2z"/><path d="m37 20h2v2h-2z"/><path d="m41 16h2v2h-2z"/><path d="m41 20h2v2h-2z"/><path d="m45 16h2v2h-2z"/><path d="m45 20h2v2h-2z"/></svg>