<svg id="Layer_1" enable-background="new 0 0 512 512" height="512" viewBox="0 0 512 512" width="512" xmlns="http://www.w3.org/2000/svg"><g><g><path d="m462 316h-412c-8.284 0-15-6.716-15-15v-148c0-8.284 6.716-15 15-15 22.056 0 40-17.944 40-40 0-8.284 6.716-15 15-15h302c8.284 0 15 6.716 15 15 0 22.056 17.944 40 40 40 8.284 0 15 6.716 15 15v148c0 8.284-6.716 15-15 15z" fill="#fdbf00"/></g><path d="m462 138c-22.056 0-40-17.944-40-40 0-8.284-6.716-15-15-15h-150.999v233h205.999c8.284 0 15-6.716 15-15v-148c0-8.284-6.716-15-15-15z" fill="#ff8856"/><g><path d="m91 512h-60c-8.284 0-15-6.716-15-15v-60c0-8.284 6.716-15 15-15h60c8.284 0 15 6.716 15 15v60c0 8.284-6.716 15-15 15z" fill="#453d81"/></g><g><path d="m189.5 316h-48c-29.5 0-53.5-24-53.5-53.5s24-53.5 53.5-53.5h48c29.5 0 53.5 24 53.5 53.5s-24 53.5-53.5 53.5z" fill="#fff4f4"/></g><g><path d="m370.5 316h-48c-29.5 0-53.5-24-53.5-53.5s24-53.5 53.5-53.5h48c29.5 0 53.5 24 53.5 53.5s-24 53.5-53.5 53.5z" fill="#f6efea"/></g><g><path d="m481 512h-60c-8.284 0-15-6.716-15-15v-60c0-8.284 6.716-15 15-15h60c8.284 0 15 6.716 15 15v60c0 8.284-6.716 15-15 15z" fill="#38336b"/></g><g><path d="m481 392h-450c-8.284 0-15-6.716-15-15v-46c0-24.813 20.187-45 45-45h390c24.813 0 45 20.187 45 45v46c0 8.284-6.716 15-15 15z" fill="#7dd5f4"/></g><g><path d="m497 452h-482c-8.284 0-15-6.716-15-15v-60c0-8.284 6.716-15 15-15h482c8.284 0 15 6.716 15 15v60c0 8.284-6.716 15-15 15z" fill="#ccc"/></g><g><path d="m256.001 177.062c-23.227 0-55.442-33.085-61.664-39.717-14.667-15.635-39.273-46.44-39.273-77.1-.001-33.219 27.026-60.245 60.246-60.245 15.451 0 29.811 5.743 40.691 15.736 10.88-9.993 25.238-15.736 40.69-15.736 33.22 0 60.245 27.026 60.245 60.245 0 33.221-24.7 63.753-39.423 78.995-16.852 17.448-43.075 37.822-61.512 37.822z" fill="#ff415b"/></g><g><path d="m497 452h-482c-8.284 0-15-6.716-15-15v-60c0-8.284 6.716-15 15-15h482c8.284 0 15 6.716 15 15v60c0 8.284-6.716 15-15 15z" fill="#ffde3b"/></g><path d="m296.691 0c-15.452 0-29.811 5.743-40.69 15.736v161.325c18.438 0 44.66-20.374 61.513-37.821 14.723-15.242 39.423-45.774 39.423-78.995 0-33.219-27.026-60.245-60.246-60.245z" fill="#e50058"/><path d="m451 286h-194.999v106h224.999c8.284 0 15-6.716 15-15v-46c0-24.813-20.187-45-45-45z" fill="#4793ff"/><path d="m497 362h-240.999v90h240.999c8.284 0 15-6.716 15-15v-60c0-8.284-6.716-15-15-15z" fill="#fcba00"/></g></svg>