<svg height="464pt" viewBox="0 -88 464 464" width="464pt" xmlns="http://www.w3.org/2000/svg"><path d="m40 240h32v48h-32zm0 0" fill="#a88e74"/><path d="m392 240h32v48h-32zm0 0" fill="#a88e74"/><path d="m40 240h32v32h-32zm0 0" fill="#9a826a"/><path d="m392 240h32v32h-32zm0 0" fill="#9a826a"/><path d="m232 208h-184v-64h-8v-96c0-26.507812 21.492188-48 48-48h112c17.671875 0 32 14.328125 32 32zm0 0" fill="#b6534f"/><path d="m232 208h184v-64h8v-96c0-26.507812-21.492188-48-48-48h-112c-17.671875 0-32 14.328125-32 32zm0 0" fill="#b6534f"/><path d="m232 208h-184v-64h168c8.835938 0 16 7.164062 16 16zm0 0" fill="#e06661"/><path d="m416 208h-184v-48c0-8.835938 7.164062-16 16-16h168zm0 0" fill="#e06661"/><path d="m152 72c0 8.835938-7.164062 16-16 16s-16-7.164062-16-16 7.164062-16 16-16 16 7.164062 16 16zm0 0" fill="#a24a46"/><path d="m344 72c0 8.835938-7.164062 16-16 16s-16-7.164062-16-16 7.164062-16 16-16 16 7.164062 16 16zm0 0" fill="#a24a46"/><path d="m40 192h384v24h-384zm0 0" fill="#b6534f"/><path d="m448 256h-432v-88h32v40h368v-40h32zm0 0" fill="#a24a46"/><path d="m48 183.28125c20.117188-3.40625 35.875-19.164062 39.28125-39.28125h-39.28125zm0 0" fill="#b6534f"/><path d="m416 183.28125c-20.117188-3.40625-35.875-19.164062-39.28125-39.28125h39.28125zm0 0" fill="#b6534f"/><g fill="#e06661"><path d="m464 136c0 22.089844-17.910156 40-40 40s-40-17.910156-40-40 17.910156-40 40-40 40 17.910156 40 40zm0 0"/><path d="m80 136c0 22.089844-17.910156 40-40 40s-40-17.910156-40-40 17.910156-40 40-40 40 17.910156 40 40zm0 0"/></g></svg>