<?xml version="1.0"?>
<svg xmlns="http://www.w3.org/2000/svg" viewBox="0 0 512 512" width="512" height="512"><g id="Out_line" data-name="Out line"><path d="M488,304H296a24.0275,24.0275,0,0,0-24,24v24H200a24.0275,24.0275,0,0,0-24,24V488a8.00039,8.00039,0,0,0,8,8h32a8.00039,8.00039,0,0,0,8-8V464H384v24a8.00039,8.00039,0,0,0,8,8h32a8.00039,8.00039,0,0,0,8-8V464h16v24a8.00039,8.00039,0,0,0,8,8h32a8.00039,8.00039,0,0,0,8-8V312A8.00039,8.00039,0,0,0,488,304Zm-8,16v96H416V376a8.00917,8.00917,0,0,1,8-8h16a8.00039,8.00039,0,0,0,8-8V328a8.00917,8.00917,0,0,1,8-8ZM368,416H304v-8a8.00917,8.00917,0,0,1,8-8h48a8.00917,8.00917,0,0,1,8,8Zm-88-16a8.00917,8.00917,0,0,1,8,8v8H224v-8a8.00917,8.00917,0,0,1,8-8Zm120,32v16H192V432Zm-16-16V376a8.00917,8.00917,0,0,1,8-8h9.37622A23.88238,23.88238,0,0,0,400,376v40Zm32,16h64v16H416ZM296,320H433.37622A23.88238,23.88238,0,0,0,432,328v24H392a24.0275,24.0275,0,0,0-24,24v9.37622A23.88238,23.88238,0,0,0,360,384H312a23.90134,23.90134,0,0,0-16,6.13086,24.01639,24.01639,0,0,0-8-4.75464V328A8.00917,8.00917,0,0,1,296,320Zm-64,48h40v16H232a23.88238,23.88238,0,0,0-8,1.37622V376A8.00917,8.00917,0,0,1,232,368Zm-32,0h9.37109A23.89077,23.89077,0,0,0,208,376v40H192V376A8.00917,8.00917,0,0,1,200,368Zm8,112H192V464h16Zm208,0H400V464h16Zm48,0V464h16v16Z"/><path d="M248,328a8.00039,8.00039,0,0,0,8-8V96a8.00039,8.00039,0,0,0-8-8H128V64H241.37622a24,24,0,1,0,0-16H128V40A23.98433,23.98433,0,0,0,88,22.13086a23.94341,23.94341,0,0,0-32,0A23.98433,23.98433,0,0,0,16,40V488a8.00039,8.00039,0,0,0,8,8h96a8.00039,8.00039,0,0,0,8-8V328ZM264,48a8,8,0,1,1-8,8A8.00917,8.00917,0,0,1,264,48ZM48,480H32V40a8,8,0,0,1,16,0Zm32,0H64V40a8,8,0,0,1,16,0Zm32,0H96V40a8,8,0,0,1,16,0ZM240,104V312H128V296h88a8.00039,8.00039,0,0,0,8-8V128a8.00039,8.00039,0,0,0-8-8H128V104Zm-32,96H176V136h32Zm0,16v64H176V216Zm-48-16H128V136h32Zm0,16v64H128V216Z"/><path d="M488,128h-8a8,8,0,0,1,0-16,8,8,0,0,0,0-16,8,8,0,0,1,0-16,8,8,0,0,0,0-16H352a23.98433,23.98433,0,0,0-17.86914,40,23.94242,23.94242,0,0,0-4.75464,24H296a24,24,0,0,0,0,48h8v2.667A29.36681,29.36681,0,0,0,333.333,208,13.3978,13.3978,0,0,1,344,213.333l17.59961,23.46679A8.00005,8.00005,0,0,0,376,232V176h32v2.667A29.36681,29.36681,0,0,0,437.333,208,13.3978,13.3978,0,0,1,448,213.333l17.59961,23.46679A8.00005,8.00005,0,0,0,480,232V176h8a24,24,0,0,0,0-48Zm-40,0H432a8,8,0,0,1,0-16h25.37109a23.98235,23.98235,0,0,0,.00513,16ZM432,80h25.37109a23.98235,23.98235,0,0,0,.00513,16H432a8,8,0,0,1,0-16Zm-80,0h57.37109a23.98235,23.98235,0,0,0,.00513,16H352a8,8,0,0,1,0-16Zm-8,40a8.00917,8.00917,0,0,1,8-8h57.37109a23.98235,23.98235,0,0,0,.00513,16H352A8.00917,8.00917,0,0,1,344,120Zm-56,32a8.00917,8.00917,0,0,1,8-8H448a8,8,0,0,1,0,16H296A8.00917,8.00917,0,0,1,288,152Zm72,55.999-3.2002-4.26562A29.47166,29.47166,0,0,0,333.333,192,13.34848,13.34848,0,0,1,320,178.667V176h40Zm104,0-3.2002-4.26562A29.47166,29.47166,0,0,0,437.333,192,13.34848,13.34848,0,0,1,424,178.667V176h40ZM488,160H470.62378a23.94021,23.94021,0,0,0,0-16H488a8,8,0,0,1,0,16Z"/></g></svg>
