<?xml version="1.0" encoding="iso-8859-1"?>
<!-- Generator: Adobe Illustrator 19.0.0, SVG Export Plug-In . SVG Version: 6.00 Build 0)  -->
<svg version="1.1" id="Capa_1" xmlns="http://www.w3.org/2000/svg" xmlns:xlink="http://www.w3.org/1999/xlink" x="0px" y="0px"
	 viewBox="0 0 511.998 511.998" style="enable-background:new 0 0 511.998 511.998;" xml:space="preserve">
<path style="fill:#FDCA6E;" d="M234.667,204.813c46.393,0.751,91.012-17.791,123.215-51.197h0.512v59.73c0.119,0,0.222,0,0.341,0
	c26.196-20.65,41.734-51.974,42.323-85.329c0-15.044-3.319-29.908-9.728-43.518c-6.144-13.269-14.745-25.249-25.343-35.326
	C337.284,22.542,299.415,8.002,260.266,8.556C218.02,7.788,177.411,24.854,148.4,55.573c-28.671-8.106-50.685-19.796-62.376-33.364
	C79.932,36.8,76.8,52.467,76.809,68.287c0.666,39.635,19.515,76.754,51.112,100.688c6.092,13.857,14.813,26.409,25.684,36.947
	v-20.479C178.683,198.303,206.492,204.95,234.667,204.813z"/>
<g>
	<path style="fill:#F9F5F2;" d="M221.868,435.202h68.263c18.824-0.06,34.072-15.308,34.132-34.132v-42.665H187.736v42.665
		C187.796,419.894,203.044,435.142,221.868,435.202z"/>
	<path style="fill:#F9F5F2;" d="M119.473,247.478c0,18.849,15.282,34.132,34.132,34.132v-68.263
		C134.755,213.346,119.473,228.629,119.473,247.478z"/>
	<path style="fill:#F9F5F2;" d="M358.394,281.609c18.849,0.094,34.208-15.112,34.302-33.961s-15.112-34.208-33.961-34.302
		c-0.119,0.094-0.222,0.213-0.341,0.307V281.609z"/>
	<path style="fill:#F9F5F2;" d="M358.394,213.687c0.119-0.094,0.222-0.213,0.341-0.307c-0.119,0-0.222,0-0.341,0V213.687z"/>
</g>
<path style="fill:#43ADDC;" d="M472.394,437.932c-6.835-31.444-34.635-53.885-66.813-53.928h-81.319v17.066
	c-0.06,18.824-15.308,34.072-34.132,34.132h-68.263c-18.824-0.06-34.072-15.308-34.132-34.132v-17.066h-81.319
	c-32.178,0.043-59.978,22.484-66.813,53.928l-13.994,65.533h460.777L472.394,437.932z"/>
<path style="fill:#F9F5F2;" d="M357.882,153.616c-32.203,33.406-76.822,51.948-123.215,51.197
	c-28.184,0.137-55.984-6.502-81.063-19.37v138.83c0,18.849,15.282,34.132,34.132,34.132h136.527
	c18.849,0,34.132-15.282,34.132-34.132V153.616L357.882,153.616L357.882,153.616z"/>
<g>
	<path style="fill:#231F20;" d="M480.731,436.115c-7.816-35.284-39.012-60.456-75.149-60.643h-72.786v-9.386
		c19.848-4.079,34.106-21.546,34.132-41.811v-34.985c23.056-4.668,37.954-27.143,33.278-50.199
		c-2.713-13.397-11.699-24.677-24.148-30.326c21.264-21.52,33.295-50.489,33.534-80.747c0.017-16.272-3.575-32.348-10.504-47.068
		c-6.57-14.25-15.794-27.118-27.177-37.92C341.576,14.93,301.616-0.463,260.266,0.023c-42.784-0.734-84.058,15.803-114.503,45.873
		c-24.643-7.543-43.45-17.851-53.279-29.259c-1.92-2.261-4.881-3.336-7.808-2.85c-2.918,0.461-5.384,2.398-6.528,5.12
		c-6.536,15.641-9.898,32.425-9.873,49.38c0.734,41.461,20.069,80.397,52.674,106.021c5.453,11.801,12.731,22.672,21.563,32.212
		c-22.689,6.11-36.128,29.456-30.019,52.145c4.19,15.555,16.801,27.408,32.579,30.625v34.985
		c0.026,20.266,14.284,37.733,34.132,41.811v9.386h-72.786c-36.145,0.188-67.35,25.385-75.158,60.678l-13.994,65.533
		c-0.981,4.608,1.954,9.139,6.562,10.129c0.589,0.128,1.186,0.188,1.783,0.188h460.777c4.71,0,8.533-3.823,8.533-8.533
		c0-0.597-0.06-1.195-0.188-1.783L480.731,436.115z M196.269,366.938H315.73v34.132c0,14.139-11.46,25.599-25.599,25.599h-68.263
		c-14.139,0-25.599-11.46-25.599-25.599V366.938z M383.993,247.478c-0.017,10.845-6.843,20.513-17.066,24.14v-48.279
		C377.15,226.965,383.985,236.632,383.993,247.478z M133.245,162.311c-29.66-22.237-47.349-56.957-47.904-94.024
		c-0.009-10.444,1.459-20.837,4.36-30.872c16.912,12.347,36.06,21.298,56.377,26.367c3.132,0.87,6.485-0.102,8.669-2.509
		c27.348-28.978,65.678-45.037,105.518-44.183c36.947-0.503,72.675,13.183,99.835,38.236c9.847,9.344,17.825,20.47,23.525,32.792
		c5.879,12.475,8.917,26.102,8.9,39.9c-0.179,24.268-9.292,47.622-25.599,65.601v-40.002c-0.239-4.804-4.232-8.567-9.045-8.533
		c-2.381,0-4.659,0.998-6.272,2.748c-30.565,31.683-72.931,49.235-116.943,48.45c-26.81,0.111-53.262-6.195-77.129-18.405
		c-1.16-0.589-2.432-0.896-3.729-0.913c-0.068,0-0.137-0.051-0.205-0.051h-0.137c-0.503,0.026-1.007,0.094-1.502,0.205
		c-0.23,0-0.469,0.051-0.7,0.111c-1.655,0.444-3.123,1.425-4.181,2.782c-0.154,0.188-0.299,0.384-0.435,0.589
		c-0.461,0.648-0.819,1.365-1.084,2.116c0,0.102-0.111,0.188-0.145,0.29c-3.78-5.487-7.023-11.323-9.659-17.441
		C135.208,164.282,134.346,163.164,133.245,162.311z M128.006,247.478c0.017-10.845,6.843-20.513,17.066-24.14v48.279
		C134.858,267.982,128.023,258.323,128.006,247.478z M162.138,324.274V198.84c10.282,4.284,20.931,7.611,31.819,9.941
		c-7.262,6.007-8.285,16.759-2.287,24.029s16.759,8.285,24.029,2.287c6.715-5.555,8.175-15.274,3.379-22.544
		c5.171,0.427,10.359,0.768,15.59,0.768c41.931,0.478,82.701-13.781,115.194-40.292v151.254c0,14.139-11.46,25.599-25.599,25.599
		H187.736C173.606,349.873,162.138,338.413,162.138,324.274z M408.286,494.932l-7.347-44.072l-16.827,2.816l6.878,41.257H121.009
		l6.878-41.257l-16.827-2.816l-7.347,44.072H36.158l11.784-55.191c6.084-27.459,30.352-47.05,58.476-47.204h72.786v8.533
		c0.026,23.551,19.114,42.639,42.665,42.665h68.263c23.551-0.026,42.639-19.114,42.665-42.665v-8.533h72.786
		c28.116,0.154,52.384,19.728,58.467,47.178l11.792,55.216H408.286z"/>
	<circle style="fill:#231F20;" cx="307.188" cy="221.853" r="17.066"/>
</g>
<g>
</g>
<g>
</g>
<g>
</g>
<g>
</g>
<g>
</g>
<g>
</g>
<g>
</g>
<g>
</g>
<g>
</g>
<g>
</g>
<g>
</g>
<g>
</g>
<g>
</g>
<g>
</g>
<g>
</g>
</svg>
