<?xml version="1.0"?>
<svg xmlns="http://www.w3.org/2000/svg" height="512px" viewBox="-15 0 481 482" width="512px"><g><path d="m93.699219 449h264c5.5 0 10-4.5 10-10v-395c0-5.5-4.5-10-10-10h-264c-5.5 0-10 4.5-10 10v395c0 5.5 4.5 10 10 10zm10-395h244v374h-244zm0 0" data-original="#000000" class="active-path" data-old_color="#000000" fill="#0EBEF5"/><path d="m125.699219 206c-5.5 0-10 4.5-10 10v51c0 5.5 4.5 10 10 10s10-4.5 10-10v-51c0-5.5-4.5-10-10-10zm0 0" data-original="#000000" class="active-path" data-old_color="#000000" fill="#0EBEF5"/><path d="m440.898438 462h-40.199219v-451.800781c.101562-5.5-4.199219-10.097657-9.699219-10.199219h-330.5c-5.5.101562-9.898438 4.699219-9.800781 10.199219v451.800781h-40.199219c-5.5 0-10 4.5-10 10s4.5 10 10 10h430.5c5.5 0 10-4.5 10-10-.101562-5.5-4.5-10-10.101562-10zm-60.199219 0h-310v-442h310zm0 0" data-original="#000000" class="active-path" data-old_color="#000000" fill="#0EBEF5"/></g> </svg>
