<svg xmlns="http://www.w3.org/2000/svg" xmlns:xlink="http://www.w3.org/1999/xlink" xmlns:fi="http://pattern.flaticon.com/" x="0" y="0" width="55" height="55" viewBox="0 0 64.16666666666667 64.16666666666667"><rect x="0px" y="0px" width="100%" height="100%" opacity="1" fill="#ffffff"/><defs><g transform="matrix(0.11719001829624176 0 0 0.11719001829624176 2 2)" id="L1_4"><circle cx="255" cy="255" r="255" fill="#000000"/><path d="M391.37,292.817c-48.362,48.362-126.774,48.362-175.136,0s-48.362-126.774,0-175.136  c10.084-10.084,21.476-18.057,33.627-23.935c-39.798,1.061-79.279,16.774-109.653,47.147c-62.946,62.946-62.946,165.003,0,227.949  s165.003,62.946,227.949,0c30.374-30.374,46.086-69.854,47.147-109.653C409.427,271.341,401.454,282.733,391.37,292.817z" fill="#fcfdff"/><g><path d="M355.804,153.568 361.513,205.217 367.224,153.568 418.873,147.859 367.224,142.148    361.513,90.499 355.804,142.148 304.154,147.859z" fill="#fcffff"/><path d="M112.365,410.626 116.455,447.623 120.545,410.626 157.542,406.536 120.545,402.446    116.455,365.449 112.365,402.446 75.368,406.536z" fill="#fcffff"/></g></g></defs><g fi:class="KUsePattern"><pattern id="pattern_L1_4" width="350" height="350" patternUnits="userSpaceOnUse"><use xlink:href="#L1_4" x="-350" y="-350"/><use xlink:href="#L1_4" x="0" y="-350"/><use xlink:href="#L1_4" x="350" y="-350"/><use xlink:href="#L1_4" x="-350" y="0"/><use xlink:href="#L1_4" x="0" y="0"/><use xlink:href="#L1_4" x="350" y="0"/><use xlink:href="#L1_4" x="-350" y="350"/><use xlink:href="#L1_4" x="0" y="350"/><use xlink:href="#L1_4" x="350" y="350"/></pattern><rect x="0" y="0" width="100%" height="100%" fill="url(#pattern_L1_4)"/></g></svg>