<?xml version="1.0" encoding="iso-8859-1"?>
<!-- Generator: Adobe Illustrator 19.0.0, SVG Export Plug-In . SVG Version: 6.00 Build 0)  -->
<svg version="1.1" id="Capa_1" xmlns="http://www.w3.org/2000/svg" xmlns:xlink="http://www.w3.org/1999/xlink" x="0px" y="0px"
	 viewBox="0 0 512 512" style="enable-background:new 0 0 512 512;" xml:space="preserve">
<g>
	<g>
		<g>
			<path d="M384.445,330.039h-80.518c-4.143,0-7.5,3.358-7.5,7.5c0,4.142,3.357,7.5,7.5,7.5h80.518c4.143,0,7.5-3.358,7.5-7.5
				C391.945,333.397,388.588,330.039,384.445,330.039z"/>
			<path d="M382.697,415.195v9.707c0,4.142,3.357,7.5,7.5,7.5s7.5-3.358,7.5-7.5v-9.707c0-4.142-3.357-7.5-7.5-7.5
				C386.055,407.695,382.697,411.053,382.697,415.195z"/>
			<path d="M371.026,471.23c4.143,0,7.5-3.358,7.5-7.5v-9.707c0-4.142-3.357-7.5-7.5-7.5s-7.5,3.358-7.5,7.5v9.707
				C363.526,467.873,366.884,471.23,371.026,471.23z"/>
			<path d="M125.638,189.632c4.143,0,7.5-3.358,7.5-7.5c0-4.142-3.357-7.5-7.5-7.5h-19.171c-4.143,0-7.5,3.358-7.5,7.5
				c0,4.142,3.357,7.5,7.5,7.5H125.638z"/>
			<path d="M431.414,0H134.918c-4.147,0-7.984,2.078-10.264,5.556L65.526,95.723c-1.325,2.023-2.026,4.373-2.026,6.795v294.234
				c0,4.142,3.357,7.5,7.5,7.5s7.5-3.358,7.5-7.5V108.553h44.262c9.421,0,17.085-7.719,17.085-17.207V15h291.567
				c1.15,0,2.086,0.99,2.086,2.207v48.859c0,4.142,3.357,7.5,7.5,7.5s7.5-3.358,7.5-7.5V17.207C448.5,7.719,440.835,0,431.414,0z
				 M124.847,91.346c0,1.217-0.936,2.207-2.085,2.207H84.887l39.96-60.937V91.346z"/>
			<path d="M376.13,424.902v-9.707c0-4.142-3.357-7.5-7.5-7.5s-7.5,3.358-7.5,7.5v9.707c0,4.142,3.357,7.5,7.5,7.5
				S376.13,429.044,376.13,424.902z"/>
			<path d="M441,87.04c-4.143,0-7.5,3.358-7.5,7.5v400.253c0,1.217-0.936,2.207-2.086,2.207H80.586c-1.15,0-2.086-0.99-2.086-2.207
				v-68.92c0-4.142-3.357-7.5-7.5-7.5s-7.5,3.358-7.5,7.5v68.92c0,9.488,7.665,17.207,17.086,17.207h350.828
				c9.421,0,17.086-7.719,17.086-17.207V94.54C448.5,90.398,445.143,87.04,441,87.04z"/>
			<path d="M106.467,471.23h145.7c4.143,0,7.5-3.358,7.5-7.5c0-4.142-3.357-7.5-7.5-7.5h-7.837v-79.863
				c0-9.488-7.665-17.207-17.086-17.207h-19.171c-0.705,0-1.401,0.043-2.085,0.127v-31.456c0-9.488-7.665-17.207-17.086-17.207
				h-19.171c-9.421,0-17.085,7.719-17.085,17.207v60.577c-0.684-0.084-1.38-0.127-2.086-0.127h-19.171
				c-9.421,0-17.086,7.719-17.086,17.207v50.742h-7.836c-4.143,0-7.5,3.358-7.5,7.5C98.967,467.873,102.324,471.23,106.467,471.23z
				 M205.987,376.367c0-1.217,0.936-2.207,2.085-2.207h19.171c1.15,0,2.086,0.99,2.086,2.207v79.863h-23.342V376.367z
				 M167.645,327.832c0-1.217,0.936-2.207,2.085-2.207h19.172c1.15,0,2.086,0.99,2.086,2.207V456.23h-23.342h-0.001V327.832z
				 M129.303,405.488c0-1.217,0.936-2.207,2.086-2.207h19.171c1.15,0,2.086,0.99,2.086,2.207v50.742h-23.343V405.488z"/>
			<path d="M260.106,67.938c-2.041-0.073-4.012,0.683-5.478,2.097c-1.466,1.413-2.294,3.362-2.294,5.398v2.194
				c-55.297,1.961-99.688,48.087-99.688,104.505c0,57.66,46.364,104.57,103.354,104.57c54.465,0,99.225-42.849,103.085-96.976h2.354
				c4.143,0,7.5-3.287,7.5-7.43c0-0.039,0.001-0.125,0.001-0.164c0-29.783-11.261-57.977-31.708-79.389
				C316.813,81.36,289.423,69,260.106,67.938z M256,141.097c22.292,0,40.428,18.408,40.428,41.035
				c0,22.627-18.136,41.035-40.428,41.035s-40.428-18.408-40.428-41.035C215.572,159.505,233.708,141.097,256,141.097z
				 M167.647,182.132c0-48.144,37.663-87.538,84.688-89.494v33.58c-28.862,1.914-51.762,26.261-51.762,55.914
				c0,12.752,4.236,24.525,11.36,33.953l-23.457,23.753C175.486,224.241,167.646,204.096,167.647,182.132z M256,271.703
				c-21.701,0-41.599-7.971-56.995-21.179l23.486-23.783c9.313,7.167,20.929,11.427,33.509,11.427
				c28.015,0,51.242-21.123,54.921-48.441h33.119C340.227,235.577,302.197,271.703,256,271.703z M353.047,174.727
				c-0.778-0.124-1.608-0.124-2.385,0h-39.717c-3.097-23.619-20.806-42.642-43.611-47.452v-43.76
				c46.774,5.394,82.952,43.593,86.347,91.212H353.047z"/>
			<path d="M374.86,58.242h-19.171c-4.143,0-7.5,3.358-7.5,7.5c0,4.142,3.357,7.5,7.5,7.5h19.171c4.143,0,7.5-3.358,7.5-7.5
				C382.36,61.6,379.003,58.242,374.86,58.242z"/>
			<path d="M374.86,286.797c4.143,0,7.5-3.358,7.5-7.5c0-4.142-3.357-7.5-7.5-7.5h-19.171c-4.143,0-7.5,3.358-7.5,7.5
				c0,4.142,3.357,7.5,7.5,7.5H374.86z"/>
			<path d="M347.063,432.402c4.143,0,7.5-3.358,7.5-7.5v-9.707c0-4.142-3.357-7.5-7.5-7.5s-7.5,3.358-7.5,7.5v9.707
				C339.563,429.044,342.92,432.402,347.063,432.402z"/>
			<path d="M348.66,471.23c4.143,0,7.5-3.358,7.5-7.5v-9.707c0-4.142-3.357-7.5-7.5-7.5s-7.5,3.358-7.5,7.5v9.707
				C341.16,467.873,344.518,471.23,348.66,471.23z"/>
			<path d="M246.414,189.632h19.172c4.143,0,7.5-3.358,7.5-7.5c0-4.142-3.357-7.5-7.5-7.5h-19.172c-4.143,0-7.5,3.358-7.5,7.5
				C238.914,186.274,242.271,189.632,246.414,189.632z"/>
			<path d="M325.495,432.402c4.143,0,7.5-3.358,7.5-7.5v-9.707c0-4.142-3.357-7.5-7.5-7.5s-7.5,3.358-7.5,7.5v9.707
				C317.995,429.044,321.353,432.402,325.495,432.402z"/>
			<path d="M353.604,366.66c0-4.142-3.357-7.5-7.5-7.5h-42.176c-4.143,0-7.5,3.358-7.5,7.5c0,4.142,3.357,7.5,7.5,7.5h42.176
				C350.246,374.16,353.604,370.802,353.604,366.66z"/>
			<path d="M303.928,446.523c-4.143,0-7.5,3.358-7.5,7.5v9.707c0,4.142,3.357,7.5,7.5,7.5s7.5-3.358,7.5-7.5v-9.707
				C311.428,449.881,308.07,446.523,303.928,446.523z"/>
			<path d="M326.294,471.23c4.143,0,7.5-3.358,7.5-7.5v-9.707c0-4.142-3.357-7.5-7.5-7.5s-7.5,3.358-7.5,7.5v9.707
				C318.794,467.873,322.151,471.23,326.294,471.23z"/>
			<path d="M311.428,415.195c0-4.142-3.357-7.5-7.5-7.5s-7.5,3.358-7.5,7.5v9.707c0,4.142,3.357,7.5,7.5,7.5s7.5-3.358,7.5-7.5
				V415.195z"/>
		</g>
	</g>
</g>
<g>
</g>
<g>
</g>
<g>
</g>
<g>
</g>
<g>
</g>
<g>
</g>
<g>
</g>
<g>
</g>
<g>
</g>
<g>
</g>
<g>
</g>
<g>
</g>
<g>
</g>
<g>
</g>
<g>
</g>
</svg>
