<?xml version="1.0" encoding="iso-8859-1"?>
<!-- Generator: Adobe Illustrator 19.0.0, SVG Export Plug-In . SVG Version: 6.00 Build 0)  -->
<svg version="1.1" id="Capa_1" xmlns="http://www.w3.org/2000/svg" xmlns:xlink="http://www.w3.org/1999/xlink" x="0px" y="0px"
	 viewBox="0 0 512.001 512.001" style="enable-background:new 0 0 512.001 512.001;" xml:space="preserve">
<g>
	
		<rect x="44.833" y="322.557" transform="matrix(-0.5 -0.866 0.866 -0.5 -172.2746 582.9811)" style="fill:#E9D8AE;" width="74.638" height="37.329"/>
	<polygon style="fill:#FF874F;" points="79.65,299.57 116.969,364.209 135.631,396.533 303.454,299.641 335.776,280.979 
		402.289,242.577 383.629,210.256 181.612,326.89 	"/>
	<path style="fill:#E6E6E6;" d="M79.65,299.57l101.962,27.32l202.017-116.634l32.321-18.661l-55.983-96.966
		c-10.257-17.764-33.204-23.923-50.981-13.659L10.002,253.588l18.66,32.32L79.65,299.57z"/>
	<g>
		<path style="fill:#E9D8AE;" d="M303.454,299.641l21.713,37.609c6.454-11.153,18.514-18.656,32.326-18.655l-21.717-37.616
			L303.454,299.641z"/>
		<path style="fill:#E9D8AE;" d="M472.143,337.256l-82.321-0.001c3.176,5.489,4.992,11.862,4.992,18.661
			c0,6.798-1.816,13.172-4.994,18.661h82.323L472.143,337.256L472.143,337.256z"/>
	</g>
	<g>
		<path style="fill:#FF874F;" d="M394.814,355.916c0-6.798-1.816-13.172-4.992-18.661c-6.453-11.156-18.515-18.661-32.329-18.661
			c-13.813,0-25.873,7.503-32.326,18.656c-3.177,5.491-4.996,11.866-4.996,18.666c0,20.613,16.709,37.322,37.321,37.322
			c13.816,0,25.877-7.505,32.328-18.662C392.998,369.088,394.814,362.714,394.814,355.916z"/>
		<path style="fill:#FF874F;" d="M472.143,337.256v37.321v46.496c0,8.21,6.719,14.928,14.929,14.928h14.93v-160.17h-14.93
			c-8.21,0-14.929,6.718-14.929,14.929V337.256z"/>
	</g>
</g>
<path d="M502.002,265.831h-14.93c-13.746,0-24.929,11.183-24.929,24.929v36.496h-67.028c-7.506-9.828-18.766-16.633-31.621-18.268
	l-14.058-24.349l57.853-33.401c4.783-2.761,6.422-8.877,3.66-13.66l-13.66-23.661l23.661-13.661c4.783-2.761,6.422-8.877,3.66-13.66
	l-55.983-96.967c-8.415-14.574-24.161-23.628-41.094-23.628c-8.257,0-16.4,2.182-23.549,6.309L5.002,244.927
	c-4.783,2.761-6.422,8.877-3.66,13.66l18.66,32.321c1.326,2.297,3.51,3.973,6.072,4.659l27.668,7.414l-11.418,6.591
	c-2.297,1.326-3.973,3.51-4.659,6.072c-0.687,2.562-0.327,5.292,0.999,7.588l37.32,64.639c1.853,3.208,5.213,5.002,8.67,5.002
	c1.696,0,3.416-0.432,4.99-1.341l23.664-13.663l13.662,23.664c1.326,2.297,3.51,3.973,6.072,4.659
	c0.852,0.228,1.721,0.341,2.588,0.341c1.74,0,3.467-0.455,5-1.34L299.792,313.3l14.053,24.339c-2.365,5.626-3.675,11.8-3.675,18.276
	c0,26.094,21.229,47.322,47.322,47.322c15.327,0,28.968-7.33,37.622-18.662h67.028v36.496c0,13.745,11.183,24.928,24.929,24.928
	h14.93c5.523,0,10-4.477,10-10V275.831C512.002,270.308,507.524,265.831,502.002,265.831z M23.662,257.247L313.984,89.63
	c4.112-2.374,8.798-3.629,13.549-3.629c9.81,0,18.92,5.222,23.773,13.628l50.983,88.307l-23.659,13.66
	c-0.001,0.001-0.002,0.001-0.002,0.001L180.199,316.159l-97.955-26.247c-0.003-0.001-0.006-0.001-0.008-0.002l-46.985-12.589
	L23.662,257.247z M88.305,369.211l-27.32-47.318l15.005-8.663l27.319,47.318L88.305,369.211z M139.291,382.873l-13.66-23.661
	c-0.001-0.001-0.001-0.002-0.002-0.003l-25.247-43.731l78.643,21.072c0.384,0.103,0.771,0.174,1.16,0.23
	c0.116,0.017,0.232,0.027,0.349,0.04c0.287,0.031,0.573,0.05,0.861,0.056c0.072,0.001,0.145,0.014,0.218,0.014
	c0.045,0,0.089-0.008,0.134-0.009c0.384-0.005,0.766-0.026,1.146-0.075c0.008-0.001,0.016-0.001,0.023-0.002
	c0.387-0.051,0.77-0.131,1.148-0.228c0.111-0.028,0.221-0.062,0.331-0.094c0.28-0.081,0.556-0.174,0.828-0.28
	c0.108-0.042,0.217-0.081,0.323-0.127c0.363-0.156,0.721-0.326,1.066-0.525l193.356-111.635l8.66,15.001L139.291,382.873z
	 M326.748,319.986l-9.634-16.685l15.002-8.662l9.62,16.662C336.193,313.265,331.127,316.234,326.748,319.986z M357.493,383.238
	c-15.065,0-27.322-12.257-27.322-27.322s12.257-27.322,27.322-27.322c10.294,0,19.274,5.725,23.932,14.156
	c0.079,0.143,0.155,0.288,0.231,0.433c0.157,0.297,0.314,0.594,0.46,0.897c0.192,0.401,0.378,0.805,0.55,1.215
	c0.094,0.22,0.177,0.445,0.264,0.668c0.113,0.289,0.225,0.578,0.327,0.87c0.069,0.198,0.137,0.397,0.202,0.597
	c0.121,0.371,0.234,0.744,0.339,1.12c0.036,0.129,0.076,0.257,0.11,0.387c0.14,0.531,0.266,1.065,0.373,1.604
	c0.011,0.053,0.019,0.107,0.029,0.16c0.094,0.484,0.173,0.972,0.24,1.461c0.019,0.133,0.035,0.268,0.052,0.402
	c0.053,0.431,0.095,0.863,0.128,1.297c0.01,0.13,0.021,0.259,0.029,0.39c0.034,0.554,0.055,1.108,0.055,1.665
	s-0.021,1.111-0.055,1.665c-0.008,0.131-0.02,0.261-0.029,0.391c-0.033,0.433-0.075,0.866-0.128,1.296
	c-0.017,0.135-0.033,0.27-0.052,0.404c-0.067,0.488-0.146,0.974-0.24,1.457c-0.011,0.055-0.019,0.11-0.029,0.165
	c-0.107,0.538-0.233,1.071-0.373,1.601c-0.034,0.132-0.075,0.263-0.111,0.395c-0.105,0.372-0.217,0.743-0.337,1.111
	c-0.065,0.202-0.134,0.403-0.204,0.603c-0.102,0.289-0.211,0.573-0.322,0.858c-0.09,0.227-0.174,0.456-0.268,0.679
	c-0.036,0.087-0.079,0.171-0.116,0.257c-0.276,0.633-0.575,1.253-0.896,1.86c-0.074,0.14-0.148,0.28-0.225,0.419
	C376.771,377.511,367.789,383.238,357.493,383.238z M404.016,364.576c0.034-0.187,0.059-0.375,0.091-0.562
	c0.077-0.446,0.153-0.892,0.218-1.342c0.045-0.311,0.081-0.623,0.119-0.934c0.053-0.43,0.108-0.86,0.149-1.294
	c0.036-0.376,0.06-0.754,0.086-1.132c0.027-0.374,0.061-0.745,0.078-1.121c0.029-0.617,0.041-1.235,0.047-1.854
	c0.001-0.141,0.011-0.28,0.011-0.422s-0.01-0.281-0.011-0.422c-0.006-0.619-0.017-1.237-0.047-1.854
	c-0.018-0.376-0.051-0.748-0.078-1.122c-0.027-0.377-0.05-0.754-0.086-1.13c-0.041-0.435-0.097-0.865-0.149-1.296
	c-0.039-0.31-0.074-0.621-0.119-0.93c-0.064-0.452-0.141-0.9-0.218-1.347c-0.032-0.186-0.057-0.373-0.091-0.558h58.127v17.321
	h-58.127V364.576z M492.002,426h-4.93c-2.672,0-4.929-2.256-4.929-4.928v-46.496v-37.321v-46.496c0-2.672,2.257-4.929,4.929-4.929
	h4.93V426z"/>
<path d="M259.585,198.024c1.695,0,3.414-0.432,4.988-1.34l0.222-0.128c4.783-2.76,6.424-8.876,3.663-13.659
	c-2.76-4.783-8.876-6.425-13.659-3.663l-0.222,0.128c-4.783,2.76-6.424,8.876-3.663,13.659
	C252.766,196.23,256.128,198.024,259.585,198.024z"/>
<path d="M286.406,182.534c1.696,0,3.415-0.432,4.99-1.341l41.245-23.813c4.783-2.761,6.422-8.877,3.66-13.66
	c-2.761-4.782-8.874-6.422-13.66-3.66l-41.245,23.813c-4.783,2.761-6.422,8.877-3.66,13.66
	C279.589,180.74,282.949,182.534,286.406,182.534z"/>
<path d="M337.862,186.934c1.852,3.21,5.214,5.003,8.671,5.003c1.695,0,3.414-0.432,4.988-1.34l0.222-0.128
	c4.783-2.76,6.424-8.876,3.663-13.659c-2.76-4.784-8.875-6.425-13.659-3.663l-0.222,0.128
	C336.742,176.035,335.101,182.151,337.862,186.934z"/>
<path d="M270.016,226.104c1.853,3.209,5.213,5.002,8.67,5.002c1.696,0,3.416-0.432,4.99-1.341l41.244-23.813
	c4.783-2.762,6.422-8.877,3.66-13.66c-2.762-4.782-8.876-6.422-13.66-3.66l-41.244,23.813
	C268.892,215.206,267.254,221.321,270.016,226.104z"/>
<g>
</g>
<g>
</g>
<g>
</g>
<g>
</g>
<g>
</g>
<g>
</g>
<g>
</g>
<g>
</g>
<g>
</g>
<g>
</g>
<g>
</g>
<g>
</g>
<g>
</g>
<g>
</g>
<g>
</g>
</svg>
