<svg xmlns="http://www.w3.org/2000/svg" viewBox="0 0 512.001 512.001"><path d="M84.643 382.877l-37.32-64.637 32.327-18.664 37.32 64.637z" fill="#e9d8ae"/><path d="M79.65 299.57l55.98 96.963L402.29 242.577l-18.66-32.32L181.612 326.9z" fill="#ff874f"/><path d="M79.65 299.57l101.962 27.32L415.95 191.595 359.967 94.63c-10.257-17.764-33.204-23.923-50.98-13.66L10.002 253.588l18.66 32.32L79.65 299.57z" fill="#e6e6e6"/><path d="M303.454 299.64l21.713 37.6c6.454-11.153 18.514-18.656 32.326-18.655l-21.717-37.616-32.322 18.662zm168.69 37.616l-82.32-.001a37.14 37.14 0 0 1 4.992 18.661c0 6.798-1.816 13.172-4.994 18.66h82.323v-37.32z" fill="#e9d8ae"/><path d="M394.814 355.916c0-6.798-1.816-13.172-4.992-18.66-6.453-11.156-18.515-18.66-32.33-18.66s-25.873 7.503-32.326 18.656a37.15 37.15 0 0 0-4.996 18.666c0 20.613 16.7 37.322 37.32 37.322 13.816 0 25.877-7.505 32.328-18.662 3.178-5.488 4.994-11.862 4.994-18.66zm77.33-18.66v83.817c0 8.2 6.72 14.928 14.93 14.928h14.93V275.83h-14.93c-8.2 0-14.93 6.718-14.93 14.93v46.496z" fill="#ff874f"/><path d="M502.002 265.83h-14.93c-13.746 0-24.93 11.183-24.93 24.93v36.496h-67.028c-7.506-9.828-18.766-16.633-31.62-18.268l-14.058-24.35 57.853-33.4a10 10 0 0 0 3.66-13.66l-13.66-23.66 23.66-13.66a10 10 0 0 0 3.66-13.66L368.627 89.63C360.212 75.055 344.466 66 327.533 66c-8.257 0-16.4 2.182-23.55 6.3L5.002 244.927a10 10 0 0 0-3.66 13.66l18.66 32.32c1.326 2.297 3.5 3.973 6.072 4.66l27.668 7.414-11.418 6.6c-2.297 1.326-3.973 3.5-4.66 6.072s-.327 5.292 1 7.588l37.32 64.64c1.853 3.208 5.213 5.002 8.67 5.002 1.696 0 3.416-.432 5-1.34l23.664-13.663 13.662 23.664c1.326 2.297 3.5 3.973 6.072 4.66.852.228 1.72.34 2.588.34 1.74 0 3.467-.455 5-1.34L299.792 313.3l14.053 24.34a47.05 47.05 0 0 0-3.675 18.276c0 26.094 21.23 47.322 47.322 47.322 15.327 0 28.968-7.33 37.622-18.662h67.028v36.496c0 13.745 11.183 24.928 24.93 24.928H502a10 10 0 0 0 10-10V275.83a10 10 0 0 0-9.999-10zm-478.34-8.584L313.984 89.63a27.14 27.14 0 0 1 13.55-3.63c9.8 0 18.92 5.222 23.773 13.628l50.983 88.307L180.2 316.16 35.25 277.32l-11.6-20.074zM88.305 369.2l-27.32-47.318L76 313.23l27.32 47.318-15.004 8.663zm50.986 13.662l-38.9-67.395 78.643 21.072a9.91 9.91 0 0 0 1.16.23c.116.017.232.027.35.04a10.34 10.34 0 0 0 .86.056c.072.001.145.014.218.014.045 0 .1-.008.134-.01.384-.005.766-.026 1.146-.075.008-.001.016-.001.023-.002a9.75 9.75 0 0 0 1.148-.228c.1-.028.22-.062.33-.094a9.71 9.71 0 0 0 .828-.28c.108-.042.217-.08.323-.127a10.22 10.22 0 0 0 1.066-.525l193.356-111.635 8.66 15L139.3 382.873zm187.457-62.887l-9.634-16.685 15.002-8.662 9.62 16.662c-5.543 1.964-10.6 4.933-14.988 8.685zm30.745 63.252c-15.065 0-27.322-12.257-27.322-27.322s12.257-27.322 27.322-27.322c10.294 0 19.274 5.725 23.932 14.156l.23.433.46.897a27.04 27.04 0 0 1 .55 1.215c.094.22.177.445.264.668l.327.87.202.597c.12.37.234.744.34 1.12l.1.387a26.63 26.63 0 0 1 .373 1.604l.03.16a26.62 26.62 0 0 1 .24 1.461l.052.402a27.9 27.9 0 0 1 .128 1.297l.03.4a27.15 27.15 0 0 1 .055 1.665 27.15 27.15 0 0 1-.055 1.665l-.03.4c-.033.433-.075.866-.128 1.296l-.052.404a26.48 26.48 0 0 1-.24 1.457c-.01.055-.02.1-.03.165-.107.538-.233 1.07-.373 1.6-.034.132-.075.263-.1.395a28.96 28.96 0 0 1-.337 1.111 25.12 25.12 0 0 1-.204.603 25.18 25.18 0 0 1-.322.858l-.268.68c-.036.087-.08.17-.116.257-.276.633-.575 1.253-.896 1.86l-.225.42c-4.658 8.434-13.64 14.16-23.936 14.16zm46.523-18.662c.034-.187.06-.375.1-.562l.218-1.342c.045-.3.08-.623.12-.934l.15-1.294c.036-.376.06-.754.086-1.132l.078-1.12a49.76 49.76 0 0 0 .047-1.854c.001-.14.01-.28.01-.422s-.01-.28-.01-.422a47.69 47.69 0 0 0-.047-1.854c-.018-.376-.05-.748-.078-1.122l-.086-1.13c-.04-.435-.097-.865-.15-1.296l-.12-.93a45.53 45.53 0 0 0-.218-1.347l-.1-.558h58.127v17.32h-58.127v-.001zM492.002 426h-4.93c-2.672 0-4.93-2.256-4.93-4.928V290.76a5 5 0 0 1 4.93-4.93h4.93V426zM259.585 198.024c1.695 0 3.414-.432 4.988-1.34l.222-.128a10 10 0 1 0-9.996-17.322l-.222.128a10 10 0 0 0-3.663 13.659c1.852 3.2 5.214 5.003 8.67 5.003zm26.82-15.5c1.696 0 3.415-.432 5-1.34l41.245-23.813a10 10 0 1 0-10-17.32l-41.245 23.813a10 10 0 0 0-3.66 13.66c1.853 3.207 5.213 5 8.67 5zm51.456 4.4c1.852 3.2 5.214 5.003 8.67 5.003 1.695 0 3.414-.432 4.988-1.34l.222-.128a10 10 0 1 0-9.996-17.322l-.222.128a10 10 0 0 0-3.663 13.659zm-67.846 39.17c1.853 3.2 5.213 5.002 8.67 5.002 1.696 0 3.416-.432 5-1.34l41.244-23.813a10 10 0 1 0-10-17.32l-41.244 23.813a10 10 0 0 0-3.66 13.659z"/></svg>