<svg xmlns="http://www.w3.org/2000/svg" height="682.667" viewBox="0 -41 512 512" width="682.667"><style><![CDATA[.B{fill:#af1023}.C{fill:#b57a4e}.D{fill:#e62937}.E{fill:#7f051a}.F{fill:#e0aa68}]]></style><path d="M378.79 298.895c6.363-13.527 12.8-22.93 17.078-28.44l1.082-1.39-1.754-.21c-4.664-.566-8.184-4.54-8.184-9.234v-5.23c0-5.133 4.172-9.31 9.3-9.31h8.754l-2.914-1.848c-31.898-20.184-106.54-80.863-110.64-207.992l-.03-.97h-71.355l-.03.97c-4.102 127.13-78.742 187.81-110.64 207.992l-2.918 1.848h8.758c5.13 0 9.3 4.176 9.3 9.31v5.23c0 4.695-3.52 8.668-8.187 9.234l-1.75.21 1.082 1.39c4.277 5.512 10.715 14.914 17.078 28.44 9.324 19.82 20.22 52.203 23.695 99.492h198.582c3.477-47.285 14.37-79.672 23.695-99.492zm0 0" class="C"/><path d="M237.508 223.352H135.96c-10.125 8.836-19.387 15.37-26.508 19.88l-2.918 1.844h8.758c5.13 0 9.3 4.176 9.3 9.3v5.234c0 4.695-3.52 8.664-8.187 9.23l-1.75.215 1.082 1.4c4.277 5.508 10.715 14.914 17.078 28.44 6.645 14.113 14.074 34.6 19.063 62.316h85.63a5.17 5.17 0 0 0 5.148-5.156V228.508a5.17 5.17 0 0 0-5.148-5.156zm2.465-189.082h-19.848l-.03.97c-2.434 75.348-29.64 127.348-58.043 161.414h75.457c2.832 0 5.148-2.316 5.148-5.152V38.766c0-1.937-1.094-3.613-2.684-4.496zm34.52 162.382h75.063c-28.402-34.066-55.613-86.066-58.043-161.414l-.03-.97H272.03c-1.6.883-2.687 2.56-2.687 4.496V191.5a5.17 5.17 0 0 0 5.152 5.152zM378.8 298.895c6.363-13.527 12.8-22.93 17.078-28.44l1.082-1.4-1.754-.2a9.32 9.32 0 0 1-8.184-9.234v-5.23a9.32 9.32 0 0 1 9.3-9.31h8.754l-2.914-1.848c-7.125-4.508-16.383-11.043-26.508-19.88H274.492a5.17 5.17 0 0 0-5.148 5.156v127.55a5.17 5.17 0 0 0 5.148 5.152h85.234c4.988-27.703 12.422-48.2 19.063-62.316zm0 0" fill="#abebff"/><path d="M301.22 191.5v-88.953c-5.375-20.016-8.902-42.38-9.707-67.3l-.03-.97H272.03c-1.6.883-2.684 2.56-2.684 4.496V191.5a5.17 5.17 0 0 0 5.148 5.152h31.875c-2.832 0-5.148-2.316-5.148-5.152zm0 164.555V228.508a5.17 5.17 0 0 1 5.148-5.156h-31.875a5.17 5.17 0 0 0-5.148 5.156v127.55a5.17 5.17 0 0 0 5.148 5.152h31.875a5.17 5.17 0 0 1-5.148-5.156zm0 0" fill="#76d8ff"/><path d="M133.723 298.47c-6.52-13.852-13.113-23.504-17.934-29.57-.164.008-.328.023-.496.023H90.527c4.816 6.066 11.402 15.715 17.9 29.547 11.13 23.652 24.484 65.113 24.9 128.305a3.11 3.11 0 0 1-.898 2.199 3.09 3.09 0 0 1-2.191.914h25.28c.824 0 1.61-.328 2.19-.914s.902-1.375.898-2.2c-.426-63.19-13.777-104.652-24.906-128.305zm0 0" class="B"/><path d="M110.027 298.47c-6.508-13.832-13.094-23.477-17.9-29.547H67.18c4.816 6.07 11.406 15.715 17.914 29.547 11.13 23.652 24.48 65.113 24.906 128.305.004.824-.316 1.613-.898 2.2s-1.367.914-2.19.914h24.934a3.09 3.09 0 0 0 2.195-.914c.578-.586.898-1.375.895-2.2-.422-63.19-13.777-104.652-24.906-128.305zm0 0" class="D"/><path d="M68.422 268.922h-18.31l-.238.656c-1.352 3.656-4.855 6.113-8.723 6.113H35.86v151.102c0 1.707 1.383 3.094 3.1 3.094h69.2a3.09 3.09 0 0 0 2.195-.914 3.1 3.1 0 0 0 .895-2.199c-.422-63.19-13.777-104.648-24.906-128.305-6.508-13.832-13.094-23.477-17.9-29.547zm0 0" class="B"/><path d="M53 426.793v-157.87h-2.887l-.238.656c-1.352 3.656-4.855 6.113-8.723 6.113H35.86v151.102c0 1.707 1.383 3.094 3.1 3.094H56.1c-1.707 0-3.1-1.387-3.1-3.094zm0 0" class="E"/><path d="M172.047 34.27c-2.97 115.586-54.27 180.473-87.988 210.81h24.332C137.7 226.96 217.285 165.8 221.133 34.27zm0 0" class="B"/><path d="M134.852 34.27c-2.906 112.96-51.96 177.508-85.668 208.7a9.18 9.18 0 0 1 .691 1.453l.238.656h36.738c33.848-30.94 84.086-95.98 86.69-210.81zm0 0" class="D"/><path d="M41.848 34.27l-.293.465c-1.53 2.418-3.47 4.465-5.695 6.082V238.31h5.293c3.867 0 7.375 2.457 8.723 6.117l.098.266c33.848-31.117 83.645-96.098 86.234-210.418h-94.36zm0 0" class="B"/><path d="M53 34.27H41.848l-.293.465c-1.53 2.418-3.47 4.465-5.695 6.082V238.31h5.293c3.867 0 7.375 2.457 8.723 6.117l.098.266L53 241.855zm0 0" class="E"/><path d="M115.293 244.078h-65.54a9.26 9.26 0 0 1 .699 3.535v18.773c0 1.25-.25 2.445-.7 3.54h65.54c5.664 0 10.3-4.64 10.3-10.31v-5.234c0-5.668-4.637-10.305-10.3-10.305zm0 0" fill="#ffcb00"/><path d="M73.656 259.617v-5.234c0-5.668 4.637-10.31 10.305-10.31H49.754c.45 1.094.7 2.29.7 3.54v18.773a9.26 9.26 0 0 1-.699 3.535H83.96c-5.668 0-10.305-4.637-10.305-10.305zm0 0" fill="#f39600"/><path d="M29.293 237.31c-5.668 0-10.305 4.637-10.305 10.305v18.773c0 5.668 4.637 10.31 10.305 10.31h11.86c5.664 0 10.3-4.64 10.3-10.31v-18.773c0-5.668-4.637-10.305-10.3-10.305zm0 0" class="F"/><path d="M34.512 266.387v-18.773c0-5.043 3.672-9.262 8.473-10.133-.598-.11-1.207-.176-1.832-.176h-11.86c-5.668 0-10.305 4.64-10.305 10.31v18.773c0 5.668 4.637 10.305 10.305 10.305h11.86a10.07 10.07 0 0 0 1.828-.172c-4.797-.87-8.47-5.1-8.47-10.133zm0 0" class="C"/><path d="M420.82 268.922h-24.508c-.168 0-.332-.016-.496-.023-4.82 6.066-11.418 15.72-17.934 29.57-11.13 23.652-24.484 65.113-24.906 128.305-.004.824.316 1.613.895 2.2a3.09 3.09 0 0 0 2.195.914H381.1c-.824 0-1.613-.328-2.19-.914s-.902-1.375-.898-2.2c.426-63.19 13.777-104.652 24.906-128.305 6.508-13.832 13.098-23.477 17.914-29.547zm0 0" class="B"/><path d="M444.438 268.922h-24.95c-4.812 6.07-11.402 15.715-17.9 29.547-11.13 23.652-24.48 65.113-24.906 128.305-.004.824.316 1.613.898 2.2s1.367.914 2.19.914h24.95a3.09 3.09 0 0 1-2.195-.914c-.578-.586-.898-1.375-.895-2.2.426-63.19 13.777-104.652 24.906-128.305 6.508-13.832 13.094-23.477 17.9-29.547zm0 0" class="D"/><path d="M470.453 275.69c-3.867 0-7.375-2.457-8.723-6.113l-.242-.656h-18.305c-4.816 6.07-11.402 15.715-17.914 29.547-11.13 23.652-24.48 65.113-24.906 128.305-.004.824.316 1.613.898 2.2a3.09 3.09 0 0 0 2.191.914h69.203c1.707 0 3.1-1.387 3.1-3.094V275.69zm0 0" class="B"/><path d="M470.008 275.676c-3.687-.18-6.98-2.582-8.277-6.098l-.238-.656h-18.31c-4.816 6.07-11.402 15.715-17.9 29.547-11.13 23.652-24.484 65.113-24.9 128.305a3.11 3.11 0 0 0 .898 2.199 3.09 3.09 0 0 0 2.191.914h31.8a3.09 3.09 0 0 1-2.195-.914 3.11 3.11 0 0 1-.898-2.199c.426-63.19 13.78-104.652 24.9-128.305 4.477-9.52 8.988-17.043 12.938-22.793zm0 0" class="E"/><path d="M339.148 34.27h-48.676c3.848 131.527 83.434 192.69 112.742 210.81h23.922c-33.723-30.336-85.02-95.223-87.988-210.81zm0 0" class="B"/><path d="M376.69 34.27h-38.63c2.602 114.828 52.844 179.867 86.69 210.81h36.734l.242-.656c.184-.496.4-.97.668-1.414-33.707-31.18-82.797-95.73-85.707-208.738zm0 0" class="D"/><path d="M470.445 34.734l-.293-.465h-94.75c2.6 114.324 52.387 179.3 86.23 210.422l.098-.27c1.348-3.656 4.855-6.117 8.723-6.117h5.293V40.512c-2.06-1.566-3.863-3.504-5.3-5.777zm0 0" class="B"/><path d="M375.402 34.27c2.6 114.324 52.387 179.3 86.23 210.422l.098-.27c1.348-3.656 4.855-6.117 8.723-6.117h5.293v-11.547c-31.29-35.625-66.566-96.754-68.734-192.488zm0 0" class="E"/><path d="M461.148 266.387v-18.773c0-1.254.254-2.445.703-3.54h-65.54c-5.664 0-10.3 4.64-10.3 10.31v5.234c0 5.668 4.637 10.31 10.3 10.31h65.54a9.3 9.3 0 0 1-.703-3.539zm0 0" fill="#ffcb00"/><path d="M417.738 259.617v-5.234c0-5.668 4.637-10.31 10.3-10.31h-31.727c-5.664 0-10.3 4.64-10.3 10.31v5.234c0 5.668 4.637 10.31 10.3 10.31h31.727c-5.664-.004-10.3-4.64-10.3-10.31zm0 0" fill="#f39600"/><path d="M482.313 237.31c5.668 0 10.305 4.637 10.305 10.305v18.773c0 5.668-4.637 10.31-10.305 10.31h-11.86c-5.664 0-10.3-4.64-10.3-10.31v-18.773c0-5.668 4.637-10.305 10.3-10.305zm0 0" class="F"/><path d="M475.93 266.387v-18.773c0-5 3.605-9.19 8.344-10.113-.637-.125-1.29-.19-1.96-.19h-11.86c-5.664 0-10.3 4.637-10.3 10.305v18.773c0 5.668 4.637 10.31 10.3 10.31h11.86c.672 0 1.324-.07 1.96-.195-4.738-.922-8.344-5.117-8.344-10.113zm0 0" class="C"/><path d="M470.8 35.27a21.86 21.86 0 0 1-3.758-12.281c0-4.543 1.387-8.77 3.758-12.277H41.2c2.37 3.508 3.758 7.734 3.758 12.277a21.86 21.86 0 0 1-3.758 12.281zm0 0" fill="#eac092"/><path d="M44.957 22.988a21.86 21.86 0 0 1-3.758 12.281h34.52V10.71H41.2c2.37 3.508 3.758 7.734 3.758 12.277zm0 0" class="F"/><path d="M512 22.988C512 10.293 501.71 0 489.023 0a22.99 22.99 0 0 0-22.98 22.988c0 12.7 10.29 22.992 22.98 22.992A22.99 22.99 0 0 0 512 22.988zm0 0" class="C"/><path d="M481.61 22.988c0-9.96 6.336-18.44 15.195-21.633C494.37.48 491.754 0 489.023 0a22.99 22.99 0 0 0-22.98 22.988c0 12.7 10.29 22.992 22.98 22.992 2.73 0 5.352-.48 7.78-1.355-8.86-3.19-15.195-11.672-15.195-21.637zm0 0" fill="#9b5729"/><path d="M45.957 22.988A22.99 22.99 0 0 0 22.977 0C10.29 0 0 10.293 0 22.988A22.99 22.99 0 0 0 22.977 45.98c12.69 0 22.98-10.293 22.98-22.992zm0 0" class="C"/><path d="M15.97 22.988c0-9.887 6.238-18.312 14.992-21.56C28.477.504 25.785 0 22.977 0 10.29 0 0 10.293 0 22.988A22.99 22.99 0 0 0 22.977 45.98c2.81 0 5.5-.508 7.984-1.43C22.207 41.305 15.97 32.88 15.97 22.988zm0 0" fill="#9b5729"/></svg>