<svg xmlns="http://www.w3.org/2000/svg" height="682.667" viewBox="0 -4 512 511" width="682.667"><path d="M25.602 495.434V17.566A17.07 17.07 0 0 1 42.668.5h426.664a17.07 17.07 0 0 1 17.066 17.066v477.867zm0 0" fill="#35495e"/><path d="M59.734 495.434V43.168c0-4.71 1.9-8.535 4.266-8.535h187.734c2.355 0 4.266 3.824 4.266 8.535v452.266zm0 0" fill="#46b29d"/><path d="M213.332 119.965V205.3c0 23.563-19.102 42.664-42.664 42.664h-25.602c-23.562 0-42.668-19.102-42.668-42.664v-85.336c0-23.562 19.105-42.664 42.668-42.664h25.602c23.563 0 42.664 19.102 42.664 42.664zm0 0" fill="#14a085"/><path d="M145.066 85.832h25.602c18.852 0 34.133 15.285 34.133 34.133V205.3c0 18.852-15.28 34.133-34.133 34.133h-25.602c-18.852 0-34.133-15.28-34.133-34.133v-85.336c0-18.848 15.28-34.133 34.133-34.133zm0 0" fill="#90bae1"/><path d="M196.266 282.102h17.066c4.715 0 8.535 3.82 8.535 8.53v51.2c0 4.715-3.82 8.535-8.535 8.535h-17.066c-4.71 0-8.53-3.82-8.53-8.535v-51.2c0-4.71 3.82-8.53 8.53-8.53zm0 0" fill="#bdc3c7"/><path d="M221.867 290.633v51.2c0 4.715-3.82 8.535-8.535 8.535h-8.53v-68.266h8.53c4.715 0 8.535 3.82 8.535 8.53zm0 0" fill="#fff"/><path d="M59.734 410.102H256v85.332H59.734zm0 0" fill="#bdc3c7"/><path d="M59.734 418.633H256V435.7H59.734zm0 0" fill="#fff"/><path d="M204.8 119.965c-54.7 7.852-87.98 80.043-93.184 92.16-.45-2.246-.676-4.53-.684-6.824v-85.336c0-18.848 15.28-34.133 34.133-34.133h25.602c18.852 0 34.133 15.285 34.133 34.133zm0 0" fill="#b0d3f0"/><path d="M452.266 495.434V43.168c0-4.71-1.9-8.535-4.266-8.535H260.266c-2.355 0-4.266 3.824-4.266 8.535v452.266zm0 0" fill="#46b29d"/><path d="M409.602 119.965V205.3c0 23.563-19.105 42.664-42.668 42.664h-25.602c-23.562 0-42.664-19.102-42.664-42.664v-85.336c0-23.562 19.102-42.664 42.664-42.664h25.602c23.563 0 42.668 19.102 42.668 42.664zm0 0" fill="#14a085"/><path d="M366.934 239.434h-25.602c-18.852 0-34.133-15.28-34.133-34.133v-85.336c0-18.848 15.28-34.133 34.133-34.133h25.602c18.852 0 34.133 15.285 34.133 34.133V205.3c0 18.852-15.28 34.133-34.133 34.133zm0 0" fill="#90bae1"/><path d="M298.668 282.102h17.066c4.71 0 8.53 3.82 8.53 8.53v51.2c0 4.715-3.82 8.535-8.53 8.535h-17.066c-4.715 0-8.535-3.82-8.535-8.535v-51.2c0-4.71 3.82-8.53 8.535-8.53zm0 0" fill="#bdc3c7"/><path d="M290.133 290.633v51.2c0 4.715 3.82 8.535 8.535 8.535h8.53v-68.266h-8.53c-4.715 0-8.535 3.82-8.535 8.53zm0 0" fill="#fff"/><path d="M452.266 495.434H256v-85.332h196.266zm0 0" fill="#bdc3c7"/><path d="M452.266 435.7H256v-17.066h196.266zm0 0" fill="#fff"/><path d="M307.2 119.965c54.7 7.852 87.98 80.043 93.184 92.16.45-2.246.676-4.53.684-6.824v-85.336c0-18.848-15.28-34.133-34.133-34.133h-25.602c-18.852 0-34.133 15.285-34.133 34.133zm0 0" fill="#b0d3f0"/><path d="M247.465 34.633h17.07v460.8h-17.07zm0 0" fill="#14a085"/><path d="M503.465 503.965H8.535c-4.715 0-8.535-3.82-8.535-8.53s3.82-8.535 8.535-8.535h494.93c4.715 0 8.535 3.82 8.535 8.535s-3.82 8.53-8.535 8.53zm0 0" fill="#2c3e50"/></svg>