<svg xmlns="http://www.w3.org/2000/svg" xmlns:xlink="http://www.w3.org/1999/xlink" height="640" viewBox="0 0 480 480" width="640"><path d="M40 8h400c17.672 0 32 14.328 32 32v400c0 17.672-14.328 32-32 32H40c-17.672 0-32-14.328-32-32V40C8 22.328 22.328 8 40 8zm0 0" fill="#dce1ea"/><g fill="#9196a9"><path d="M40 8C22.328 8 8 22.328 8 40v200C8 111.87 111.87 8 240 8zm8 56c-8.836 0-16-7.164-16-16s7.164-16 16-16 16 7.164 16 16-7.164 16-16 16zm0 0"/><path d="M8 240v200c0 17.672 14.328 32 32 32h200C111.87 472 8 368.13 8 240zm40 208c-8.836 0-16-7.164-16-16s7.164-16 16-16 16 7.164 16 16-7.164 16-16 16zm0 0"/><path d="M240 472h200c17.672 0 32-14.328 32-32V240c0 128.13-103.87 232-232 232zm192-24c-8.836 0-16-7.164-16-16s7.164-16 16-16 16 7.164 16 16-7.164 16-16 16zm8-440H240c128.13 0 232 103.87 232 232V40c0-17.672-14.328-32-32-32zm-8 56c-8.836 0-16-7.164-16-16s7.164-16 16-16 16 7.164 16 16-7.164 16-16 16zm0 0"/></g><path d="M169.97 52.633A167.19 167.19 0 0 1 216 168a164.99 164.99 0 0 1-.496 12.87 63.83 63.83 0 0 1 58.922 5.234 167.01 167.01 0 0 0 10.887-140.89 200.03 200.03 0 0 0-115.344 7.418zM42.72 206.97a167.21 167.21 0 0 1 122.93 17.832 179.8 179.8 0 0 1 10.902 6.863 63.78 63.78 0 0 1 33.984-48.406 166.99 166.99 0 0 0-116.56-79.875A199.86 199.86 0 0 0 42.718 206.97zm70.034 187.358a167.17 167.17 0 0 1 76.895-97.527 153.82 153.82 0 0 1 11.39-6.008c-16.6-12.72-25.902-32.758-24.926-53.64a167.04 167.04 0 0 0-127.457 60.992 199.92 199.92 0 0 0 64.098 96.184zm197.276 33.04A167.19 167.19 0 0 1 264 312a164.99 164.99 0 0 1 .496-12.87 63.83 63.83 0 0 1-58.922-5.234 167.01 167.01 0 0 0-10.887 140.89 200.03 200.03 0 0 0 115.344-7.418zM437.28 273.03a167.21 167.21 0 0 1-122.93-17.832 179.8 179.8 0 0 1-10.902-6.863c-2.7 20.75-15.395 38.86-33.984 48.465a167 167 0 0 0 116.559 79.871c26.918-28.73 44.746-64.773 51.258-103.602zM367.246 85.672a167.17 167.17 0 0 1-76.895 97.527c-3.734 2.168-7.53 4.168-11.4 6.008a63.83 63.83 0 0 1 24.926 53.602 167.07 167.07 0 0 0 127.457-61.008 199.9 199.9 0 0 0-64.098-96.184zm0 0" fill="#e38100"/><path d="M312 240c0 39.766-32.234 72-72 72s-72-32.234-72-72 32.234-72 72-72 72 32.234 72 72zm0 0" fill="#bec3d1"/><path d="M440 0H40C17.918.027.027 17.918 0 40v400c.027 22.082 17.918 39.973 40 40h400c22.082-.027 39.973-17.918 40-40V40c-.027-22.082-17.918-39.973-40-40zM16 40c0-13.254 10.746-24 24-24h113.984C90.61 40.512 40.512 90.61 16 153.984zm224-24c123.71 0 224 100.29 224 224S363.71 464 240 464 16 363.71 16 240c.14-123.652 100.348-223.86 224-224zM40 464c-13.254 0-24-10.746-24-24V326.016C40.512 389.39 90.61 439.488 153.984 464zm424-24c0 13.254-10.746 24-24 24H326.016C389.39 439.488 439.488 389.39 464 326.016zM326.016 16H440c13.254 0 24 10.746 24 24v113.984C439.488 90.61 389.39 40.512 326.016 16zm0 0"/><use xlink:href="#B"/><use xlink:href="#B" y="384"/><path d="M432 456c13.254 0 24-10.746 24-24s-10.746-24-24-24-24 10.746-24 24 10.746 24 24 24zm0-32a8 8 0 1 1 0 16 8 8 0 1 1 0-16zm0 0"/><use xlink:href="#B" x="384"/><path d="M37.266 212.8c1.96 1.828 4.71 2.55 7.32 1.926 38.633-9.273 79.34-3.766 114.117 15.45-45.473 4.953-87.2 27.523-116.223 62.88A8.01 8.01 0 0 0 41 300.48 209.66 209.66 0 0 0 59.863 344c12.414 21.55 28.605 40.688 47.8 56.504 2.07 1.727 4.87 2.297 7.45 1.512a8.01 8.01 0 0 0 5.352-5.398 159.1 159.1 0 0 1 70.438-91.121A173.19 173.19 0 0 0 176 376a175.19 175.19 0 0 0 11.199 61.602c.94 2.512 3.074 4.387 5.688 4.992a208.01 208.01 0 0 0 119.914-7.738c2.512-.937 4.387-3.074 4.992-5.687s-.14-5.355-1.984-7.305c-27.355-28.82-42.937-66.832-43.68-106.56 14.293 19.62 32.555 36.016 53.598 48.12 18.215 10.52 38.18 17.668 58.93 21.102.434.074.87.11 1.313.113 2.22 0 4.336-.922 5.848-2.543a207.92 207.92 0 0 0 53.297-107.746 7.99 7.99 0 0 0-2.437-7.164c-1.96-1.832-4.707-2.555-7.316-1.93a159.23 159.23 0 0 1-114.121-15.449 173.29 173.29 0 0 0 68.488-22.402c18.215-10.516 34.387-24.227 47.738-40.477a8.01 8.01 0 0 0 1.48-7.426A209.55 209.55 0 0 0 420.137 136c-12.414-21.55-28.605-40.687-47.8-56.504-2.07-1.707-4.855-2.266-7.426-1.484a8.01 8.01 0 0 0-5.336 5.371c-11.266 38.098-36.38 70.598-70.398 91.113A173.18 173.18 0 0 0 304 104a175.19 175.19 0 0 0-11.199-61.602c-.94-2.512-3.074-4.387-5.687-4.992a208.24 208.24 0 0 0-119.914 7.738c-2.512.938-4.387 3.074-4.992 5.688s.14 5.355 1.984 7.305c27.355 28.82 42.938 66.832 43.68 106.56-14.293-19.62-32.555-36.016-53.598-48.12-18.215-10.52-38.18-17.668-58.93-21.102-2.637-.44-5.32.46-7.16 2.398-28.012 29.887-46.574 67.38-53.352 107.777a8 8 0 0 0 2.434 7.152zM240 176c31.207-.03 57.88 22.46 63.113 53.227s-12.5 60.813-41.96 71.102l-.113.047a64 64 0 0 1-68.145-16.844c-17.332-18.68-21.934-45.867-11.707-69.21S214.516 175.926 240 176zM108.992 380.398c-23.637-22.062-41.312-49.742-51.39-80.46a159.13 159.13 0 0 1 40.613-33.539 157.53 157.53 0 0 1 62.098-20.32c1.328 17.477 8.39 34.027 20.094 47.074a174.81 174.81 0 0 0-71.414 87.246zm91.727 47.523a158.81 158.81 0 0 1 4.738-115.875c15.777 7.656 33.648 9.863 50.816 6.28a174.86 174.86 0 0 0 39.805 105.328c-30.922 9.418-63.72 10.887-95.36 4.266zM427.12 283.266c-7.305 31.5-22.445 60.645-44.016 84.734-39.31-7.535-74.27-29.762-97.77-62.16a80.32 80.32 0 0 0 30.594-40.801c34.027 18.172 73.11 24.578 111.16 18.227zM371.008 99.602c23.637 22.063 41.313 49.742 51.39 80.46a159.13 159.13 0 0 1-40.613 33.539c-19.05 11.043-40.203 17.965-62.098 20.32-1.328-17.477-8.39-34.027-20.094-47.074a174.81 174.81 0 0 0 71.414-87.246zM279.28 52.078a158.81 158.81 0 0 1-4.738 115.875c-15.777-7.656-33.648-9.863-50.816-6.28a174.86 174.86 0 0 0-39.805-105.328c30.922-9.418 63.72-10.887 95.36-4.266zM73.72 144c6.617-11.434 14.39-22.156 23.203-32a158.86 158.86 0 0 1 49.316 18.398 157.21 157.21 0 0 1 48.441 43.73c-14.355 9.918-25.1 24.238-30.582 40.8A174.91 174.91 0 0 0 52.91 196.734C57.19 178.223 64.207 160.45 73.72 144zm0 0"/><defs ><path id="B" d="M48 24c-13.254 0-24 10.746-24 24s10.746 24 24 24 24-10.746 24-24-10.746-24-24-24zm0 32a8 8 0 1 1 0-16 8 8 0 1 1 0 16zm0 0"/></defs></svg>