<svg xmlns="http://www.w3.org/2000/svg" viewBox="0 0 512.008 512.008"><path d="M280 464.008h-48c-4.422 0-8 3.578-8 8v8c0 17.648 14.352 32 32 32s32-14.352 32-32v-8c0-4.422-3.578-8-8-8z" fill="#868491"/><path d="M256.002 464.008H232c-4.422 0-8 3.578-8 8v8c0 17.646 14.347 31.995 31.992 32v-48z" fill="#5c546a"/><path d="M381.983 49.895C344.592 14.754 295.616-2.847 244.25.375 150.64 6.2 75.014 84.286 72.092 178.15c-2.156 69.547 34.375 133.578 95.344 167.117 15.156 8.344 24.57 24.367 24.57 41.828v60.914c0 17.648 14.352 32 32 32h64c17.648 0 32-14.352 32-32v-60.914a47.87 47.87 0 0 1 24.766-41.93c58.742-32.406 95.234-94.156 95.234-161.156 0-50.578-21.148-99.46-58.023-134.113z" fill="#ffcd00"/><circle cx="256.002" cy="184.008" r="128" fill="#ffe671"/><path d="M283.986 232.008c-10.633 0-16.07-6.203-20.03-10.727-3.492-3.984-4.883-5.273-8-5.273-3.102 0-4.484 1.29-7.96 5.266-3.734 4.273-9.383 10.734-20.016 10.734-10.625 0-16.273-6.46-20.008-10.734-3.477-3.977-4.86-5.266-7.96-5.266-4.422 0-8-3.578-8-8s3.578-8 8-8c10.625 0 16.273 6.46 20.008 10.734 3.477 3.977 4.86 5.266 7.96 5.266s4.492-1.29 7.97-5.266c3.734-4.273 9.383-10.734 20.008-10.734 10.633 0 16.07 6.203 20.03 10.727 3.492 3.984 4.883 5.273 8 5.273 3.11 0 4.5-1.29 7.992-5.266 3.742-4.273 9.39-10.734 20.03-10.734 4.422 0 8 3.578 8 8s-3.578 8-8 8c-3.117 0-4.508 1.29-8 5.273-3.742 4.274-9.4 10.727-20.023 10.727z" fill="#fff"/><path d="M232.002 384.008c-3.68 0-6.992-2.555-7.813-6.297l-40-184c-.938-4.32 1.805-8.578 6.117-9.523 4.344-.953 8.578 1.805 9.523 6.117l40 184c.938 4.32-1.805 8.578-6.117 9.523a7.96 7.96 0 0 1-1.7.18zm48.015 0a8.06 8.06 0 0 1-1.711-.18c-4.313-.945-7.055-5.203-6.117-9.523l40-184c.945-4.313 5.164-7.063 9.523-6.117 4.313.945 7.055 5.203 6.117 9.523l-40 184a8.01 8.01 0 0 1-7.812 6.297z" fill="#5c546a"/><path d="M190.633 376.008c.85 3.593 1.374 7.293 1.374 11.086v60.914c0 17.648 14.352 32 32 32h64c17.648 0 32-14.352 32-32v-60.914c0-3.8.527-7.49 1.384-11.086H190.633z" fill="#b4b6bc"/><g fill="#868491"><path d="M256.002 376.008h-65.37c.85 3.593 1.374 7.293 1.374 11.086v60.914c0 17.648 14.352 32 32 32h31.995v-104z"/><path d="M256.002 400.008h64v16h-64zm.004 32h64v16h-64z"/></g><path d="M192.002 400.008h64v16h-64zm0 32h64v16h-64z" fill="#5c546a"/></svg>