<svg xmlns="http://www.w3.org/2000/svg" xmlns:xlink="http://www.w3.org/1999/xlink" height="512" width="512"><path d="M141.006 423.276l-2.962 16.612-6.7 39.8c-2.084 12.403-12.822 21.486-25.398 21.486h-20.45c-8.534 0-15.453-6.918-15.453-15.453s6.918-15.453 15.453-15.453h12.132a5.15 5.15 0 0 0 5.078-4.29l4.424-26.1 3.22-18.286zm263.854 16.61l4.424 26.1a5.15 5.15 0 0 0 5.078 4.29h12.132c8.534 0 15.453 6.918 15.453 15.453s-6.918 15.453-15.453 15.453h-20.45c-12.577 0-23.314-9.083-25.398-21.486l-6.7-39.8-1.418-11.3 30.646 1.465z" fill="#cc9e75"/><path d="M486.245 292.056c-4.268 0-7.726-3.46-7.726-7.726V46.873c0-7.1-5.777-12.877-12.877-12.877h-36.056c-7.1 0-12.877 5.777-12.877 12.877v34.51c0 4.267-3.46-2.575-7.726-2.575s-7.726 6.843-7.726 2.575v-34.51c0-15.62 12.71-28.33 28.33-28.33h36.056c15.62 0 28.33 12.71 28.33 28.33V284.33a7.73 7.73 0 0 1-7.728 7.726z" fill="#d3d3d3"/><path d="M25.755 377.56c0 34.137 27.674 61.81 61.81 61.81h336.87c34.137 0 61.81-27.674 61.81-61.81v-85H25.755z" fill="#bde0f2"/><path d="M486.245 310.6v66.962c0 34.14-27.67 61.81-61.81 61.81H393.53c34.14 0 61.81-27.67 61.81-61.81V310.6z" fill="#7fc6dd"/><path d="M493.972 310.6H18.028C8.07 310.6 0 302.528 0 292.57a18.03 18.03 0 0 1 18.028-18.028h475.944A18.03 18.03 0 0 1 512 292.571c0 9.957-8.07 18.03-18.028 18.03z" fill="#83c8db"/><path d="M512 292.57c0 4.976-2.02 9.488-5.285 12.754-3.266 3.255-7.768 5.275-12.743 5.275h-30.905a17.99 17.99 0 0 0 12.743-5.275c3.266-3.266 5.285-7.778 5.285-12.754 0-9.952-8.077-18.028-18.028-18.028h30.905A18.04 18.04 0 0 1 512 292.571z" fill="#56a9b7"/><path d="M434.22 118.986h-50.48v-21.12c0-13.94 11.3-25.24 25.24-25.24s25.24 11.3 25.24 25.24v21.12z" fill="#b7b7b7"/><path d="M434.22 97.867v21.12h-30.905v-21.12c0-6.974-2.823-13.28-7.397-17.843a24.36 24.36 0 0 0-2.39-2.102c4.265-3.328 9.632-5.295 15.453-5.295a25.13 25.13 0 0 1 17.843 7.397 25.11 25.11 0 0 1 7.396 17.843z" fill="#a0a0a0"/><path d="M72.113 26.27c-.773 0 46.358 0 46.358 0v338.415c0 12.8-10.378 23.18-23.18 23.18s-23.18-10.378-23.18-23.18z" fill="#fcd87e"/><use xlink:href="#B" fill="#fff"/><use xlink:href="#B" x="46.36" fill="#fcd87e"/><use xlink:href="#B" x="92.717" fill="#fff"/><use xlink:href="#B" x="139.075" fill="#fcd87e"/><g fill="#56a9b7"><use xlink:href="#C"/><path d="M408.982 191.1c-4.268 0-7.726-3.46-7.726-7.726V169.98a7.73 7.73 0 0 1 7.726-7.726 7.73 7.73 0 0 1 7.726 7.726v13.392a7.73 7.73 0 0 1-7.726 7.727z"/><use xlink:href="#C" x="61.811"/><use xlink:href="#D"/><path d="M408.982 235.396c-4.268 0-7.726-3.46-7.726-7.726v-13.392a7.73 7.73 0 0 1 7.726-7.726 7.73 7.73 0 0 1 7.726 7.726v13.392c0 4.267-3.458 7.726-7.726 7.726z"/><use xlink:href="#D" x="61.811"/></g><path d="M337.434 10.817c-5.705 0-10.685 3.115-13.362 7.726H51.4c-2.8-4.04-7.448-6.696-12.718-6.696-8.52 0-15.453 6.932-15.453 15.453S30.16 42.753 38.68 42.753c6.12 0 11.404-3.585 13.905-8.757h271.486c2.677 4.61 7.657 7.726 13.362 7.726 8.52 0 15.453-6.932 15.453-15.453s-6.932-15.452-15.453-15.452z" fill="#cc9e75"/><path d="M435.767 134.44h-53.57a12.88 12.88 0 0 1-12.877-12.877 12.88 12.88 0 0 1 12.877-12.877h53.57a12.88 12.88 0 0 1 12.877 12.877 12.88 12.88 0 0 1-12.877 12.877z" fill="#a5a5a5"/><path d="M448.644 121.56c0 3.554-1.442 6.768-3.77 9.107a12.85 12.85 0 0 1-9.107 3.771h-30.905c3.554 0 6.78-1.442 9.107-3.77 2.328-2.338 3.77-5.553 3.77-9.107 0-7.108-5.77-12.877-12.877-12.877h30.905c7.108 0 12.877 5.77 12.877 12.877z" fill="#8e8e8e"/><defs ><path id="B" d="M118.47 26.27h46.358v338.415c0 12.8-10.378 23.18-23.18 23.18s-23.18-10.378-23.18-23.18z"/><path id="C" d="M378.076 191.1c-4.268 0-7.726-3.46-7.726-7.726V169.98a7.73 7.73 0 0 1 7.726-7.726 7.73 7.73 0 0 1 7.726 7.726v13.392c.001 4.267-3.458 7.727-7.726 7.727z"/><path id="D" d="M378.076 235.396c-4.268 0-7.726-3.46-7.726-7.726v-13.392a7.73 7.73 0 0 1 7.726-7.726 7.73 7.73 0 0 1 7.726 7.726v13.392c.001 4.267-3.458 7.726-7.726 7.726z"/></defs></svg>