<svg viewBox="0 0 512 512" xmlns="http://www.w3.org/2000/svg"><path d="m504.5 256c0 137.242188-111.257812 248.5-248.5 248.5s-248.5-111.257812-248.5-248.5 111.257812-248.5 248.5-248.5 248.5 111.257812 248.5 248.5zm0 0" fill="#ff7956"/><path d="m239.933594 177.945312v-107h-36.578125v107-107h-19.394531c-8.175782 8.175782-12.757813 12.757813-20.933594 20.933594v125.144532h39.078125l-6.550781 220.753906c5.480468 5.648437 8.464843 8.726562 13.949218 14.371094h24.28125c5.480469-5.644532 8.46875-8.722657 13.949219-14.371094l-6.550781-220.753906h39.078125v-125.144532c-8.175781-8.175781-12.761719-12.757812-20.9375-20.933594h-19.390625zm0 0" fill="#ff3f62"/><path d="m335.46875 70.945312-6.71875 366.988282c5.472656 5.574218 8.484375 8.640625 13.953125 14.214844h24.105469c5.503906-5.785157 8.4375-8.871094 13.941406-14.65625l-7.597656-151.925782h35.820312v-179.730468c-13.625-13.625-21.261718-21.265626-34.890625-34.890626zm0 0" fill="#ff3f62"/><path d="m209.933594 177.945312v-107h-36.578125v107-107h-19.394531c-8.175782 8.175782-12.757813 12.757813-20.933594 20.933594v125.144532h39.078125l-6.550781 220.753906c5.480468 5.648437 8.464843 8.726562 13.949218 14.371094h24.28125c5.480469-5.644532 8.46875-8.722657 13.949219-14.371094l-6.550781-220.753906h39.078125v-125.144532c-8.175781-8.175781-12.761719-12.757812-20.9375-20.933594h-19.390625zm0 0" fill="#e0e0e2"/><path d="m305.46875 70.945312-6.71875 366.988282c5.472656 5.574218 8.484375 8.640625 13.953125 14.214844h24.105469c5.503906-5.785157 8.4375-8.871094 13.941406-14.65625l-7.597656-151.925782h35.820312v-179.730468c-13.625-13.625-21.261718-21.265626-34.890625-34.890626zm0 0" fill="#e0e0e2"/><path d="m37.5 256c0-132.207031 103.242188-240.300781 233.5-248.054688-4.960938-.296874-9.964844-.445312-15-.445312-137.242188 0-248.5 111.257812-248.5 248.5s111.257812 248.5 248.5 248.5c5.035156 0 10.039062-.148438 15-.445312-130.257812-7.753907-233.5-115.847657-233.5-248.054688zm0 0" fill="#ff3f62"/><g fill="#c6c5ca"><path d="m183.960938 70.945312h-30c-8.175782 8.175782-12.757813 12.757813-20.933594 20.933594v125.144532h30v-125.144532zm0 0"/><path d="m195.554688 437.777344 6.550781-220.753906h-30l-6.550781 220.753906c5.480468 5.648437 8.46875 8.722656 13.949218 14.371094h24.28125c1.027344-1.0625 1.972656-2.03125 2.859375-2.945313-3.832031-3.949219-6.640625-6.839844-11.089843-11.425781zm0 0"/><path d="m328.75 437.933594 6.71875-366.988282h-30l-6.71875 366.988282c5.472656 5.574218 8.484375 8.640625 13.953125 14.214844h24.105469c1.050781-1.101563 2.003906-2.109376 2.902344-3.050782-3.765626-3.832031-6.570313-6.691406-10.960938-11.164062zm0 0"/></g><path d="m437.019531 74.980469c-48.351562-48.351563-112.640625-74.980469-181.019531-74.980469s-132.667969 26.628906-181.019531 74.980469c-48.351563 48.351562-74.980469 112.640625-74.980469 181.019531s26.628906 132.667969 74.980469 181.019531c48.351562 48.351563 112.640625 74.980469 181.019531 74.980469s132.667969-26.628906 181.019531-74.980469c48.351563-48.351562 74.980469-112.640625 74.980469-181.019531s-26.628906-132.667969-74.980469-181.019531zm-181.019531 422.019531c-132.886719 0-241-108.113281-241-241s108.113281-241 241-241 241 108.113281 241 241-108.113281 241-241 241zm0 0"/><path d="m257.761719 224.523438v-135.75l-25.328125-25.328126h-81.578125l-25.328125 25.328126v135.75h38.851562l-6.414062 216.203124 18.367187 18.921876h30.625l18.367188-18.925782-6.414063-216.199218zm-57.148438 220.125h-17.9375l-9.53125-9.820313 6.683594-225.304687h-39.300781v-114.539063l16.539062-16.539063h8.785156v99.5h15v-99.5h21.582032v99.5h15v-99.5h8.785156l16.542969 16.539063v114.539063h-39.304688l6.6875 225.304687zm0 0"/><path d="m386.472656 293.066406v-190.335937l-39.285156-39.285157h-49.082031l-6.910157 377.5 18.363282 18.703126h30.46875l18.375-19.316407-7.367188-147.265625zm-52.878906 151.582032h-17.742188l-9.542968-9.722657 6.523437-356.480469h28.144531l30.496094 30.496094v169.128906h-36.207031l7.832031 156.585938zm0 0"/><path d="m238.023438 411.019531-1.707032 14.902344c6.488282.742187 13.113282 1.121094 19.683594 1.121094 8.082031 0 16.210938-.570313 24.164062-1.695313l-2.101562-14.851562c-13.160156 1.863281-26.828125 2.039062-40.039062.523437zm0 0"/><path d="m99.957031 256c0-26.550781 6.785157-52.765625 19.621094-75.8125l-13.105469-7.300781c-14.074218 25.273437-21.515625 54.015625-21.515625 83.113281 0 48.773438 20.910157 95.355469 57.367188 127.804688l9.976562-11.203126c-33.265625-29.605468-52.34375-72.105468-52.34375-116.601562zm0 0"/><path d="m405.523438 172.886719-13.101563 7.300781c12.835937 23.046875 19.621094 49.261719 19.621094 75.8125 0 43.039062-18.039063 84.589844-49.492188 114.003906l10.242188 10.953125c34.476562-32.234375 54.25-77.78125 54.25-124.957031 0-29.097656-7.441407-57.839844-21.519531-83.113281zm0 0"/><path d="m487 256h-15c0-57.695312-22.46875-111.9375-63.265625-152.734375-28.996094-28.996094-65.226563-49.039063-104.777344-57.957031l3.300781-14.632813c42.320313 9.542969 81.082032 30.976563 112.085938 61.980469 43.628906 43.632812 67.65625 101.640625 67.65625 163.34375zm-192.515625-212.605469c-4.726563-.84375-9.554687-1.539062-14.347656-2.070312l1.644531-14.910157c5.125.566407 10.285156 1.3125 15.34375 2.214844zm-23.980469-2.917969c-4.792968-.316406-9.671875-.476562-14.503906-.476562v-15c5.160156 0 10.371094.171875 15.488281.507812zm0 0" fill="#fff"/><path d="m361.472656 260.566406h-15v-94.375h15zm0-104.375h-15v-15h15zm0-25h-15v-15h15zm0 0" fill="#fff"/></svg>