<?xml version="1.0"?>
<svg xmlns="http://www.w3.org/2000/svg" xmlns:xlink="http://www.w3.org/1999/xlink" version="1.1" id="Capa_1" x="0px" y="0px" viewBox="0 0 512 512" style="enable-background:new 0 0 512 512;" xml:space="preserve" width="512px" height="512px"><g><g>
	<g>
		<path d="M76.573,260.629V62.998C76.573,44.803,91.376,30,109.571,30c17.623,0,32.063,13.887,32.953,31.293h-17.956v30h66v-30    h-18.043C171.616,27.343,143.736,0,109.571,0C74.834,0,46.573,28.261,46.573,62.998V260.63H0v86.997h19.575v69.094    c0,40.312,31.853,73.319,71.71,75.189V512h30v-20h269.43v20h30v-20.104c39.684-2.058,71.338-34.989,71.338-75.176v-69.094H512    v-86.997H76.573z M416.773,462H94.854c-24.967,0-45.279-20.313-45.279-45.28v-69.094h412.478v69.094h0    C462.053,441.687,441.74,462,416.773,462z M482,317.626H30v-26.997h452V317.626z" data-original="#000000" class="active-path" data-old_color="#000000" fill="#FFFFFF"/>
	</g>
</g><g>
	<g>
		<rect x="142.57" y="122" width="30" height="35" data-original="#000000" class="active-path" data-old_color="#000000" fill="#FFFFFF"/>
	</g>
</g><g>
	<g>
		<rect x="142.57" y="178" width="30" height="35" data-original="#000000" class="active-path" data-old_color="#000000" fill="#FFFFFF"/>
	</g>
</g><g>
	<g>
		<rect x="96.57" y="122" width="30" height="35" data-original="#000000" class="active-path" data-old_color="#000000" fill="#FFFFFF"/>
	</g>
</g><g>
	<g>
		<rect x="96.57" y="178" width="30" height="35" data-original="#000000" class="active-path" data-old_color="#000000" fill="#FFFFFF"/>
	</g>
</g><g>
	<g>
		<rect x="188.67" y="122" width="30" height="35" data-original="#000000" class="active-path" data-old_color="#000000" fill="#FFFFFF"/>
	</g>
</g><g>
	<g>
		<rect x="188.67" y="178" width="30" height="35" data-original="#000000" class="active-path" data-old_color="#000000" fill="#FFFFFF"/>
	</g>
</g></g> </svg>
