<svg height="512pt" viewBox="0 0 512 512" width="512pt" xmlns="http://www.w3.org/2000/svg"><path d="m316.78125 340.5h-120c-8.285156 0-15-6.714844-15-15v-98.980469c0-5.253906 2.75-10.128906 7.253906-12.84375l60-36.1875c4.707032-2.839843 10.589844-2.878906 15.332032-.097656l60 35.167969c4.59375 2.691406 7.414062 7.617187 7.414062 12.941406v100c0 8.285156-6.714844 15-15 15zm0 0" fill="#f6efea"/><path d="m324.367188 212.558594-60-35.164063c-2.578126-1.511719-5.488282-2.183593-8.367188-2.035156v165.140625h60.78125c8.285156 0 15-6.714844 15-15v-100c0-5.324219-2.820312-10.25-7.414062-12.941406zm0 0" fill="#e0d2cd"/><path d="m166.542969 253.566406c-5.132813 0-10.132813-2.636718-12.933594-7.378906-4.207031-7.136719-1.835937-16.332031 5.296875-20.542969l89.9375-53.0625c4.632812-2.734375 10.371094-2.777343 15.046875-.113281l90.003906 51.269531c7.195313 4.101563 9.707031 13.257813 5.609375 20.457031-4.101562 7.199219-13.261718 9.710938-20.460937 5.609376l-82.445313-46.96875-82.445312 48.648437c-2.390625 1.410156-5.015625 2.082031-7.609375 2.082031zm0 0" fill="#e79d45"/><path d="m56.59375 406.371094c-.46875 0-.9375-.023438-1.410156-.066406-4.449219-.417969-8.480469-2.800782-10.992188-6.496094-28.910156-42.496094-44.191406-92.222656-44.191406-143.808594 0-51.550781 15.261719-101.25 44.132812-143.726562 2.511719-3.695313 6.542969-6.078126 10.996094-6.5 4.449219-.425782 8.855469 1.164062 12.015625 4.328124l62.347657 62.34375c4.652343 4.652344 5.730468 11.789063 2.660156 17.609376-10.566406 20.023437-16.152344 42.65625-16.152344 65.445312 0 23.054688 5.707031 45.914062 16.503906 66.113281 3.113282 5.828125 2.050782 13.007813-2.621094 17.679688l-62.683593 62.683593c-2.828125 2.828126-6.648438 4.394532-10.605469 4.394532zm0 0" fill="#a4ffb3"/><path d="m256 512c-51.71875 0-101.554688-15.359375-144.125-44.417969-3.6875-2.515625-6.0625-6.546875-6.480469-10.992187-.414062-4.445313 1.171875-8.847656 4.328125-12.003906l62.644532-62.644532c4.683593-4.679687 11.878906-5.738281 17.710937-2.605468 20.277344 10.902343 43.242187 16.664062 66.421875 16.664062 22.976562 0 45.757812-5.660156 65.890625-16.375 5.824219-3.101562 12.988281-2.027344 17.652344 2.636719l62.289062 62.289062c3.15625 3.15625 4.746094 7.554688 4.328125 12-.414062 4.445313-2.789062 8.472657-6.472656 10.992188-42.582031 29.085937-92.441406 44.457031-144.1875 44.457031zm0 0" fill="#f5db60"/><path d="m455.445312 406.3125c-3.957031 0-7.777343-1.566406-10.605468-4.390625l-62.035156-62.035156c-4.6875-4.691407-5.742188-11.902344-2.589844-17.734375 10.980468-20.335938 16.785156-43.382813 16.785156-66.652344 0-23.195312-5.769531-46.179688-16.6875-66.464844-3.136719-5.832031-2.078125-13.03125 2.605469-17.714844l61.640625-61.640624c3.15625-3.160157 7.554687-4.746094 12-4.328126 4.445312.414063 8.472656 2.789063 10.992187 6.476563 29.078125 42.578125 44.449219 92.433594 44.449219 144.171875 0 51.550781-15.265625 101.257812-44.148438 143.746094-2.511718 3.699218-6.542968 6.082031-10.996093 6.5-.46875.046875-.941407.066406-1.410157.066406zm0 0" fill="#0082ff"/><path d="m182.25 133.851562c-3.886719 0-7.726562-1.507812-10.609375-4.394531l-61.996094-61.992187c-3.15625-3.15625-4.742187-7.554688-4.328125-12 .417969-4.445313 2.789063-8.476563 6.476563-10.992188 42.589843-29.09375 92.457031-44.472656 144.207031-44.472656 51.566406 0 101.277344 15.269531 143.761719 44.15625 3.695312 2.515625 6.078125 6.542969 6.5 10.992188.417969 4.453124-1.167969 8.859374-4.328125 12.019531l-61.691406 61.6875c-4.667969 4.671875-11.84375 5.738281-17.671876 2.625-20.1875-10.78125-43.035156-16.480469-66.070312-16.480469-23.4375 0-46.632812 5.886719-67.078125 17.023438-2.257813 1.230468-4.726563 1.828124-7.171875 1.828124zm0 0" fill="#df5b5b"/><path d="m406.257812 55.148438c-.417968-4.449219-2.800781-8.476563-6.5-10.992188-42.480468-28.886719-92.191406-44.15625-143.757812-44.15625v115.007812c.167969 0 .332031-.007812.5-.007812 23.035156 0 45.882812 5.699219 66.070312 16.480469 5.828126 3.113281 13.003907 2.046875 17.671876-2.625l61.691406-61.6875c3.160156-3.160157 4.746094-7.566407 4.324218-12.019531zm0 0" fill="#d20763"/><path d="m353.894531 223.738281-90.003906-51.269531c-2.441406-1.394531-5.175781-2.039062-7.890625-1.953125v32.675781l.597656-.351562 82.449219 46.964844c7.199219 4.101562 16.355469 1.589843 20.457031-5.609376 4.101563-7.199218 1.589844-16.355468-5.609375-20.457031zm0 0" fill="#df5b5b"/><path d="m402.332031 444.550781-62.289062-62.289062c-4.664063-4.664063-11.828125-5.738281-17.652344-2.636719-20.132813 10.714844-42.914063 16.375-65.890625 16.375-.167969 0-.332031-.007812-.5-.007812v116.007812c51.746094 0 101.605469-15.371094 144.1875-44.457031 3.683594-2.519531 6.058594-6.546875 6.472656-10.992188.414063-4.445312-1.171875-8.84375-4.328125-12zm0 0" fill="#e79d45"/></svg>