<?xml version="1.0"?>
<svg xmlns="http://www.w3.org/2000/svg" id="Layer_1" enable-background="new 0 0 512 512" height="512px" viewBox="0 0 512 512" width="512px"><g><path d="m0 470.14h512v40.53h-512z" data-original="#000000" class="active-path" data-old_color="#000000" fill="#3A7BD5"/><path d="m512 154.93v44.28c-4.094-2.457-240.327-144.194-247.77-148.66-5.06-3.04-11.4-3.04-16.46 0-7.244 4.347-243.696 146.215-247.77 148.66v-44.28l256-153.6z" data-original="#000000" class="active-path" data-old_color="#000000" fill="#3A7BD5"/><path d="m256 82.93-201.6 120.96v234.25h403.2v-234.25zm0 283.74c-13.23 0-24-10.77-24-24s10.77-24 24-24 24 10.77 24 24-10.77 24-24 24zm62.23-63.6c-6.327 6.327-16.471 6.179-22.63 0-21.84-21.83-57.36-21.83-79.2 0-6.25 6.25-16.38 6.25-22.63 0-6.24-6.25-6.24-16.38 0-22.63 34.32-34.31 90.15-34.31 124.46 0 6.24 6.25 6.24 16.38 0 22.63zm45.25-45.25c-6.227 6.227-16.357 6.253-22.63 0-46.79-46.79-122.92-46.79-169.7 0-6.25 6.25-16.38 6.25-22.63 0s-6.25-16.38 0-22.63c59.26-59.27 155.7-59.27 214.96 0 6.25 6.25 6.25 16.38 0 22.63z" data-original="#000000" class="active-path" data-old_color="#000000" fill="#3A7BD5"/></g> </svg>
