<svg xmlns="http://www.w3.org/2000/svg" xmlns:xlink="http://www.w3.org/1999/xlink" xmlns:fi="http://pattern.flaticon.com/" x="0" y="0" width="50" height="60" viewBox="0 0 58.333333333333336 70"><rect x="0px" y="0px" width="100%" height="100%" opacity="0" fill="#ffffff"/><defs><g transform="matrix(0.16903075575828552 0 0 0.16903075575828552 -1.00001064695698 5)" id="L1_0"><path d="M177.483,176.365c-6.903,0-12.5-5.597-12.5-12.5V12.5c0-6.903,5.597-12.5,12.5-12.5c6.903,0,12.5,5.597,12.5,12.5     v151.365C189.983,170.768,184.387,176.365,177.483,176.365z" fill="#000000"/><path d="M177.483,354.965c-87.831,0-159.286-71.456-159.286-159.285c0-35.124,11.209-68.431,32.417-96.32     c20.515-26.979,49.637-47.061,82-56.545c6.625-1.949,13.569,1.855,15.511,8.479c1.941,6.625-1.855,13.569-8.48,15.511     C82.857,83.449,43.196,136.443,43.196,195.68c0,74.045,60.24,134.285,134.286,134.285c74.045,0,134.286-60.24,134.286-134.285     c0-59.237-39.661-112.231-96.449-128.875c-6.625-1.941-10.421-8.886-8.479-15.511c1.94-6.625,8.885-10.426,15.511-8.479     c32.364,9.484,61.484,29.566,82,56.545c21.208,27.89,32.417,61.196,32.417,96.32C336.77,283.509,265.314,354.965,177.483,354.965     z" fill="#000000"/></g></defs><g fi:class="KUsePattern"><pattern id="pattern_L1_0" width="350" height="350" patternUnits="userSpaceOnUse"><use xlink:href="#L1_0" x="-350" y="-350"/><use xlink:href="#L1_0" x="0" y="-350"/><use xlink:href="#L1_0" x="350" y="-350"/><use xlink:href="#L1_0" x="-350" y="0"/><use xlink:href="#L1_0" x="0" y="0"/><use xlink:href="#L1_0" x="350" y="0"/><use xlink:href="#L1_0" x="-350" y="350"/><use xlink:href="#L1_0" x="0" y="350"/><use xlink:href="#L1_0" x="350" y="350"/></pattern><rect x="0" y="0" width="100%" height="100%" fill="url(#pattern_L1_0)"/></g></svg>