<svg height="512pt" viewBox="0 -41 512 512" width="512pt" xmlns="http://www.w3.org/2000/svg"><path d="m378.789062 298.894531c6.363282-13.527343 12.800782-22.929687 17.078126-28.441406l1.082031-1.390625-1.753907-.210938c-4.664062-.566406-8.183593-4.539062-8.183593-9.234374v-5.230469c0-5.132813 4.171875-9.308594 9.300781-9.308594h8.753906l-2.914062-1.847656c-31.898438-20.183594-106.539063-80.863281-110.640625-207.992188l-.03125-.96875h-71.355469l-.03125.96875c-4.101562 127.128907-78.742188 187.808594-110.640625 207.992188l-2.917969 1.847656h8.757813c5.128906 0 9.300781 4.175781 9.300781 9.308594v5.230469c0 4.695312-3.519531 8.667968-8.1875 9.234374l-1.75.210938 1.082031 1.390625c4.277344 5.511719 10.714844 14.914063 17.078125 28.441406 9.324219 19.820313 20.21875 52.203125 23.695313 99.492188h198.582031c3.476562-47.285157 14.371094-79.671875 23.695312-99.492188zm0 0" fill="#b57a4e"/><g fill="#abebff"><path d="m237.507812 223.351562h-101.546874c-10.125 8.835938-19.386719 15.371094-26.507813 19.878907l-2.917969 1.84375h8.757813c5.128906 0 9.300781 4.175781 9.300781 9.308593v5.234376c0 4.695312-3.519531 8.664062-8.1875 9.230468l-1.75.214844 1.082031 1.390625c4.277344 5.507813 10.714844 14.914063 17.078125 28.441406 6.644532 14.113281 14.074219 34.609375 19.0625 62.316407h85.628906c2.832032 0 5.148438-2.320313 5.148438-5.15625v-127.546876c0-2.835937-2.316406-5.15625-5.148438-5.15625zm0 0"/><path d="m239.972656 34.269531h-19.847656l-.03125.96875c-2.433594 75.347657-29.640625 127.347657-58.042969 161.414063h75.457031c2.832032 0 5.148438-2.316406 5.148438-5.152344v-152.734375c0-1.9375-1.09375-3.613281-2.683594-4.496094zm0 0"/><path d="m274.492188 196.652344h75.0625c-28.402344-34.066406-55.613282-86.066406-58.042969-161.414063l-.03125-.96875h-19.453125c-1.589844.882813-2.6875 2.558594-2.6875 4.496094v152.734375c.003906 2.835938 2.320312 5.152344 5.152344 5.152344zm0 0"/><path d="m378.789062 298.894531c6.363282-13.527343 12.800782-22.929687 17.078126-28.441406l1.082031-1.390625-1.753907-.210938c-4.664062-.566406-8.183593-4.539062-8.183593-9.234374v-5.230469c0-5.132813 4.171875-9.308594 9.300781-9.308594h8.753906l-2.914062-1.847656c-7.125-4.507813-16.382813-11.042969-26.507813-19.878907h-101.152343c-2.832032 0-5.148438 2.320313-5.148438 5.15625v127.550782c0 2.832031 2.316406 5.152344 5.148438 5.152344h85.234374c4.988282-27.703126 12.421876-48.199219 19.0625-62.316407zm0 0"/></g><path d="m301.21875 191.5v-88.953125c-5.375-20.015625-8.902344-42.378906-9.707031-67.308594l-.03125-.96875h-19.453125c-1.589844.882813-2.683594 2.558594-2.683594 4.496094v152.734375c0 2.832031 2.316406 5.152344 5.148438 5.152344h31.875c-2.832032 0-5.148438-2.316406-5.148438-5.152344zm0 0" fill="#76d8ff"/><path d="m301.21875 356.054688v-127.546876c0-2.835937 2.316406-5.15625 5.148438-5.15625h-31.875c-2.832032 0-5.148438 2.320313-5.148438 5.15625v127.550782c0 2.832031 2.316406 5.152344 5.148438 5.152344h31.875c-2.832032 0-5.148438-2.320313-5.148438-5.15625zm0 0" fill="#76d8ff"/><path d="m133.722656 298.46875c-6.519531-13.851562-13.113281-23.503906-17.933594-29.570312-.164062.007812-.328124.023437-.496093.023437h-24.765625c4.816406 6.066406 11.402344 15.714844 17.910156 29.546875 11.128906 23.652344 24.484375 65.113281 24.910156 128.304688.003906.824218-.320312 1.613281-.898437 2.199218-.582031.585938-1.371094.914063-2.191407.914063h25.28125c.824219 0 1.609376-.328125 2.191407-.914063.582031-.585937.902343-1.375.898437-2.199218-.425781-63.191407-13.777344-104.652344-24.90625-128.304688zm0 0" fill="#af1023"/><path d="m110.027344 298.46875c-6.507813-13.832031-13.09375-23.476562-17.910156-29.546875h-24.9375c4.816406 6.070313 11.40625 15.714844 17.914062 29.546875 11.128906 23.652344 24.480469 65.113281 24.90625 128.304688.003906.824218-.316406 1.613281-.898438 2.199218-.578124.585938-1.367187.914063-2.191406.914063h24.933594c.824219 0 1.613281-.328125 2.195312-.914063.578126-.585937.898438-1.375.894532-2.199218-.421875-63.191407-13.777344-104.652344-24.90625-128.304688zm0 0" fill="#e62937"/><path d="m68.421875 268.921875h-18.308594l-.238281.65625c-1.351562 3.65625-4.855469 6.113281-8.722656 6.113281h-5.292969v151.101563c0 1.707031 1.382813 3.09375 3.089844 3.09375h69.199219c.824218 0 1.613281-.328125 2.195312-.914063.578125-.582031.898438-1.375.894531-2.199218-.421875-63.191407-13.777343-104.648438-24.90625-128.304688-6.507812-13.832031-13.09375-23.476562-17.910156-29.546875zm0 0" fill="#af1023"/><path d="m53 426.792969v-157.871094h-2.886719l-.238281.65625c-1.351562 3.65625-4.855469 6.113281-8.722656 6.113281h-5.292969v151.101563c0 1.707031 1.382813 3.09375 3.089844 3.09375h17.140625c-1.707032 0-3.089844-1.386719-3.089844-3.09375zm0 0" fill="#7f051a"/><path d="m172.046875 34.269531c-2.96875 115.585938-54.269531 180.472657-87.988281 210.808594h24.332031c29.308594-18.117187 108.894531-79.277344 112.742187-210.808594zm0 0" fill="#af1023"/><path d="m134.851562 34.269531c-2.90625 112.960938-51.960937 177.507813-85.667968 208.699219.269531.460938.503906.945312.691406 1.453125l.238281.65625h36.738281c33.847657-30.941406 84.085938-95.980469 86.691407-210.808594zm0 0" fill="#e62937"/><path d="m41.847656 34.269531-.292968.464844c-1.53125 2.417969-3.46875 4.464844-5.695313 6.082031v197.492188h5.292969c3.867187 0 7.375 2.457031 8.722656 6.117187l.097656.265625c33.847656-31.117187 83.644532-96.097656 86.234375-210.417968h-94.359375zm0 0" fill="#af1023"/><path d="m53 34.269531h-11.152344l-.292968.464844c-1.53125 2.417969-3.46875 4.464844-5.695313 6.082031v197.492188h5.292969c3.867187 0 7.375 2.457031 8.722656 6.117187l.097656.265625c.996094-.914062 2.007813-1.863281 3.027344-2.835937zm0 0" fill="#7f051a"/><path d="m115.292969 244.078125h-65.539063c.449219 1.089844.699219 2.285156.699219 3.535156v18.773438c0 1.25-.25 2.445312-.699219 3.539062h65.539063c5.664062 0 10.300781-4.640625 10.300781-10.308593v-5.234376c0-5.667968-4.636719-10.304687-10.300781-10.304687zm0 0" fill="#ffcb00"/><path d="m73.65625 259.617188v-5.234376c0-5.667968 4.636719-10.308593 10.304688-10.308593h-34.207032c.449219 1.09375.699219 2.289062.699219 3.539062v18.773438c0 1.25-.25 2.445312-.699219 3.535156h34.207032c-5.667969 0-10.304688-4.636719-10.304688-10.304687zm0 0" fill="#f39600"/><path d="m29.292969 237.308594c-5.667969 0-10.304688 4.636718-10.304688 10.304687v18.773438c0 5.667969 4.636719 10.308593 10.304688 10.308593h11.859375c5.664062 0 10.300781-4.640624 10.300781-10.308593v-18.773438c0-5.667969-4.636719-10.304687-10.300781-10.304687zm0 0" fill="#e0aa68"/><path d="m34.511719 266.386719v-18.773438c0-5.042969 3.671875-9.261719 8.472656-10.132812-.597656-.109375-1.207031-.175781-1.832031-.175781h-11.859375c-5.667969 0-10.304688 4.640624-10.304688 10.308593v18.773438c0 5.667969 4.636719 10.304687 10.304688 10.304687h11.859375c.625 0 1.234375-.0625 1.828125-.171875-4.796875-.871093-8.46875-5.089843-8.46875-10.132812zm0 0" fill="#b57a4e"/><path d="m420.820312 268.921875h-24.507812c-.167969 0-.332031-.015625-.496094-.023437-4.820312 6.066406-11.417968 15.71875-17.933594 29.570312-11.128906 23.652344-24.484374 65.113281-24.90625 128.304688-.003906.824218.316407 1.613281.894532 2.199218.582031.585938 1.371094.914063 2.195312.914063h25.023438c-.824219 0-1.613282-.328125-2.191406-.914063-.582032-.585937-.902344-1.375-.898438-2.199218.425781-63.191407 13.777344-104.652344 24.90625-128.304688 6.507812-13.832031 13.097656-23.476562 17.914062-29.546875zm0 0" fill="#af1023"/><path d="m444.4375 268.921875h-24.949219c-4.8125 6.070313-11.402343 15.714844-17.910156 29.546875-11.128906 23.652344-24.480469 65.113281-24.90625 128.304688-.003906.824218.316406 1.613281.898437 2.199218.578126.585938 1.367188.914063 2.191407.914063h24.949219c-.824219 0-1.613282-.328125-2.195313-.914063-.578125-.585937-.898437-1.375-.894531-2.199218.425781-63.191407 13.777344-104.652344 24.90625-128.304688 6.507812-13.832031 13.09375-23.476562 17.910156-29.546875zm0 0" fill="#e62937"/><path d="m470.453125 275.691406c-3.867187 0-7.375-2.457031-8.722656-6.113281l-.242188-.65625h-18.304687c-4.816406 6.070313-11.402344 15.714844-17.914063 29.546875-11.128906 23.652344-24.480469 65.113281-24.90625 128.304688-.003906.824218.316407 1.613281.898438 2.199218.582031.585938 1.371093.914063 2.191406.914063h69.203125c1.707031 0 3.089844-1.386719 3.089844-3.09375v-151.101563zm0 0" fill="#af1023"/><path d="m470.007812 275.675781c-3.6875-.179687-6.980468-2.582031-8.277343-6.097656l-.238281-.65625h-18.308594c-4.816406 6.070313-11.402344 15.714844-17.910156 29.546875-11.128907 23.652344-24.484376 65.113281-24.910157 128.304688-.003906.824218.320313 1.613281.898438 2.199218.582031.585938 1.371093.914063 2.191406.914063h31.800781c-.824218 0-1.613281-.328125-2.195312-.914063-.578125-.585937-.902344-1.375-.898438-2.199218.425782-63.191407 13.78125-104.652344 24.910156-128.304688 4.476563-9.519531 8.988282-17.042969 12.9375-22.792969zm0 0" fill="#7f051a"/><path d="m339.148438 34.269531h-48.675782c3.847656 131.527344 83.433594 192.691407 112.742188 210.808594h23.921875c-33.722657-30.335937-85.019531-95.222656-87.988281-210.808594zm0 0" fill="#af1023"/><path d="m376.691406 34.269531h-38.628906c2.601562 114.828125 52.84375 179.867188 86.691406 210.808594h36.734375l.242188-.65625c.183593-.496094.410156-.96875.667969-1.414063-33.707032-31.179687-82.796876-95.730468-85.707032-208.738281zm0 0" fill="#e62937"/><path d="m470.445312 34.734375-.292968-.464844h-94.75c2.589844 114.324219 52.386718 179.300781 86.230468 210.421875l.097657-.269531c1.347656-3.65625 4.855469-6.117187 8.722656-6.117187h5.292969v-197.792969c-2.058594-1.566407-3.863282-3.503907-5.300782-5.777344zm0 0" fill="#af1023"/><path d="m375.402344 34.269531c2.589844 114.324219 52.386718 179.300781 86.230468 210.421875l.097657-.269531c1.347656-3.65625 4.855469-6.117187 8.722656-6.117187h5.292969v-11.546876c-31.289063-35.625-66.566406-96.753906-68.734375-192.488281zm0 0" fill="#7f051a"/><path d="m461.148438 266.386719v-18.773438c0-1.253906.253906-2.445312.703124-3.539062h-65.539062c-5.664062 0-10.300781 4.640625-10.300781 10.308593v5.234376c0 5.667968 4.636719 10.308593 10.300781 10.308593h65.539062c-.449218-1.09375-.703124-2.289062-.703124-3.539062zm0 0" fill="#ffcb00"/><path d="m417.738281 259.617188v-5.234376c0-5.667968 4.636719-10.308593 10.300781-10.308593h-31.726562c-5.664062 0-10.300781 4.640625-10.300781 10.308593v5.234376c0 5.667968 4.636719 10.308593 10.300781 10.308593h31.726562c-5.664062-.003906-10.300781-4.640625-10.300781-10.308593zm0 0" fill="#f39600"/><path d="m482.3125 237.308594c5.667969 0 10.304688 4.636718 10.304688 10.304687v18.773438c0 5.667969-4.636719 10.308593-10.304688 10.308593h-11.859375c-5.664063 0-10.300781-4.640624-10.300781-10.308593v-18.773438c0-5.667969 4.636718-10.304687 10.300781-10.304687zm0 0" fill="#e0aa68"/><path d="m475.929688 266.386719v-18.773438c0-5 3.605468-9.191406 8.34375-10.113281-.636719-.125-1.289063-.191406-1.960938-.191406h-11.859375c-5.664063 0-10.300781 4.636718-10.300781 10.304687v18.773438c0 5.667969 4.636718 10.308593 10.300781 10.308593h11.859375c.671875 0 1.324219-.070312 1.960938-.195312-4.738282-.921875-8.34375-5.117188-8.34375-10.113281zm0 0" fill="#b57a4e"/><path d="m470.800781 35.269531c-2.371093-3.507812-3.757812-7.734375-3.757812-12.28125 0-4.542969 1.386719-8.769531 3.757812-12.277343h-429.601562c2.371093 3.507812 3.757812 7.734374 3.757812 12.277343 0 4.546875-1.386719 8.773438-3.757812 12.28125zm0 0" fill="#eac092"/><path d="m44.957031 22.988281c0 4.546875-1.386719 8.773438-3.757812 12.28125h34.519531v-24.558593h-34.519531c2.371093 3.507812 3.757812 7.734374 3.757812 12.277343zm0 0" fill="#e0aa68"/><path d="m512 22.988281c0-12.695312-10.289062-22.988281-22.976562-22.988281-12.691407 0-22.980469 10.292969-22.980469 22.988281 0 12.699219 10.289062 22.992188 22.980469 22.992188 12.6875 0 22.976562-10.292969 22.976562-22.992188zm0 0" fill="#b57a4e"/><path d="m481.609375 22.988281c0-9.960937 6.335937-18.441406 15.195313-21.632812-2.433594-.875-5.050782-1.355469-7.78125-1.355469-12.691407 0-22.980469 10.292969-22.980469 22.988281 0 12.699219 10.289062 22.992188 22.980469 22.992188 2.730468 0 5.351562-.480469 7.78125-1.355469-8.859376-3.191406-15.195313-11.671875-15.195313-21.636719zm0 0" fill="#9b5729"/><path d="m45.957031 22.988281c0-12.695312-10.289062-22.988281-22.980469-22.988281-12.6875 0-22.976562 10.292969-22.976562 22.988281 0 12.699219 10.289062 22.992188 22.976562 22.992188 12.691407 0 22.980469-10.292969 22.980469-22.992188zm0 0" fill="#b57a4e"/><path d="m15.96875 22.988281c0-9.886719 6.238281-18.3125 14.992188-21.558593-2.484376-.925782-5.175782-1.429688-7.984376-1.429688-12.6875 0-22.976562 10.292969-22.976562 22.988281 0 12.699219 10.289062 22.992188 22.976562 22.992188 2.808594 0 5.5-.507813 7.984376-1.429688-8.753907-3.246093-14.992188-11.671875-14.992188-21.5625zm0 0" fill="#9b5729"/></svg>