<svg height="512pt" viewBox="0 -4 512 511" width="512pt" xmlns="http://www.w3.org/2000/svg"><path d="m25.601562 495.433594v-477.867188c0-9.425781 7.640626-17.066406 17.066407-17.066406h426.664062c9.425781 0 17.066407 7.640625 17.066407 17.066406v477.867188zm0 0" fill="#35495e"/><path d="m59.734375 495.433594v-452.265625c0-4.710938 1.910156-8.535157 4.265625-8.535157h187.734375c2.355469 0 4.265625 3.824219 4.265625 8.535157v452.265625zm0 0" fill="#46b29d"/><path d="m213.332031 119.964844v85.335937c0 23.5625-19.101562 42.664063-42.664062 42.664063h-25.601563c-23.5625 0-42.667968-19.101563-42.667968-42.664063v-85.335937c0-23.5625 19.105468-42.664063 42.667968-42.664063h25.601563c23.5625 0 42.664062 19.101563 42.664062 42.664063zm0 0" fill="#14a085"/><path d="m145.066406 85.832031h25.601563c18.851562 0 34.132812 15.285157 34.132812 34.132813v85.335937c0 18.851563-15.28125 34.132813-34.132812 34.132813h-25.601563c-18.851562 0-34.132812-15.28125-34.132812-34.132813v-85.335937c0-18.847656 15.28125-34.132813 34.132812-34.132813zm0 0" fill="#90bae1"/><path d="m196.265625 282.101562h17.066406c4.714844 0 8.535157 3.820313 8.535157 8.53125v51.199219c0 4.714844-3.820313 8.535157-8.535157 8.535157h-17.066406c-4.710937 0-8.53125-3.820313-8.53125-8.535157v-51.199219c0-4.710937 3.820313-8.53125 8.53125-8.53125zm0 0" fill="#bdc3c7"/><path d="m221.867188 290.632812v51.199219c0 4.714844-3.820313 8.535157-8.535157 8.535157h-8.53125v-68.265626h8.53125c4.714844 0 8.535157 3.820313 8.535157 8.53125zm0 0" fill="#fff"/><path d="m59.734375 410.101562h196.265625v85.332032h-196.265625zm0 0" fill="#bdc3c7"/><path d="m59.734375 418.632812h196.265625v17.066407h-196.265625zm0 0" fill="#fff"/><path d="m204.800781 119.964844c-54.699219 7.851562-87.980469 80.042968-93.183593 92.160156-.449219-2.246094-.675782-4.53125-.683594-6.824219v-85.335937c0-18.847656 15.28125-34.132813 34.132812-34.132813h25.601563c18.851562 0 34.132812 15.285157 34.132812 34.132813zm0 0" fill="#b0d3f0"/><path d="m452.265625 495.433594v-452.265625c0-4.710938-1.910156-8.535157-4.265625-8.535157h-187.734375c-2.355469 0-4.265625 3.824219-4.265625 8.535157v452.265625zm0 0" fill="#46b29d"/><path d="m409.601562 119.964844v85.335937c0 23.5625-19.105468 42.664063-42.667968 42.664063h-25.601563c-23.5625 0-42.664062-19.101563-42.664062-42.664063v-85.335937c0-23.5625 19.101562-42.664063 42.664062-42.664063h25.601563c23.5625 0 42.667968 19.101563 42.667968 42.664063zm0 0" fill="#14a085"/><path d="m366.933594 239.433594h-25.601563c-18.851562 0-34.132812-15.28125-34.132812-34.132813v-85.335937c0-18.847656 15.28125-34.132813 34.132812-34.132813h25.601563c18.851562 0 34.132812 15.285157 34.132812 34.132813v85.335937c0 18.851563-15.28125 34.132813-34.132812 34.132813zm0 0" fill="#90bae1"/><path d="m298.667969 282.101562h17.066406c4.710937 0 8.53125 3.820313 8.53125 8.53125v51.199219c0 4.714844-3.820313 8.535157-8.53125 8.535157h-17.066406c-4.714844 0-8.535157-3.820313-8.535157-8.535157v-51.199219c0-4.710937 3.820313-8.53125 8.535157-8.53125zm0 0" fill="#bdc3c7"/><path d="m290.132812 290.632812v51.199219c0 4.714844 3.820313 8.535157 8.535157 8.535157h8.53125v-68.265626h-8.53125c-4.714844 0-8.535157 3.820313-8.535157 8.53125zm0 0" fill="#fff"/><path d="m452.265625 495.433594h-196.265625v-85.332032h196.265625zm0 0" fill="#bdc3c7"/><path d="m452.265625 435.699219h-196.265625v-17.066407h196.265625zm0 0" fill="#fff"/><path d="m307.199219 119.964844c54.699219 7.851562 87.980469 80.042968 93.183593 92.160156.449219-2.246094.675782-4.53125.683594-6.824219v-85.335937c0-18.847656-15.28125-34.132813-34.132812-34.132813h-25.601563c-18.851562 0-34.132812 15.285157-34.132812 34.132813zm0 0" fill="#b0d3f0"/><path d="m247.464844 34.632812h17.070312v460.800782h-17.070312zm0 0" fill="#14a085"/><path d="m503.464844 503.964844h-494.929688c-4.714844 0-8.535156-3.820313-8.535156-8.53125 0-4.714844 3.820312-8.535156 8.535156-8.535156h494.929688c4.714844 0 8.535156 3.820312 8.535156 8.535156 0 4.710937-3.820312 8.53125-8.535156 8.53125zm0 0" fill="#2c3e50"/></svg>