<svg height="480pt" viewBox="0 0 480 480" width="480pt" xmlns="http://www.w3.org/2000/svg"><path d="m40 8h400c17.671875 0 32 14.328125 32 32v400c0 17.671875-14.328125 32-32 32h-400c-17.671875 0-32-14.328125-32-32v-400c0-17.671875 14.328125-32 32-32zm0 0" fill="#dce1ea"/><path d="m40 8c-17.671875 0-32 14.328125-32 32v200c0-128.128906 103.871094-232 232-232zm8 56c-8.835938 0-16-7.164062-16-16s7.164062-16 16-16 16 7.164062 16 16-7.164062 16-16 16zm0 0" fill="#9196a9"/><path d="m8 240v200c0 17.671875 14.328125 32 32 32h200c-128.128906 0-232-103.871094-232-232zm40 208c-8.835938 0-16-7.164062-16-16s7.164062-16 16-16 16 7.164062 16 16-7.164062 16-16 16zm0 0" fill="#9196a9"/><path d="m240 472h200c17.671875 0 32-14.328125 32-32v-200c0 128.128906-103.871094 232-232 232zm192-24c-8.835938 0-16-7.164062-16-16s7.164062-16 16-16 16 7.164062 16 16-7.164062 16-16 16zm0 0" fill="#9196a9"/><path d="m440 8h-200c128.128906 0 232 103.871094 232 232v-200c0-17.671875-14.328125-32-32-32zm-8 56c-8.835938 0-16-7.164062-16-16s7.164062-16 16-16 16 7.164062 16 16-7.164062 16-16 16zm0 0" fill="#9196a9"/><g fill="#e38100"><path d="m169.96875 52.632812c29.589844 31.117188 46.070312 72.425782 46.03125 115.367188 0 4.335938-.164062 8.625-.496094 12.871094 19.3125-8.011719 41.324219-6.054688 58.921875 5.234375 24.296875-43.039063 28.285157-94.628907 10.886719-140.890625-38.339844-8.929688-78.464844-6.351563-115.34375 7.417968zm0 0"/><path d="m42.71875 206.96875c41.746094-10.0625 85.761719-3.675781 122.929688 17.832031 3.734374 2.167969 7.367187 4.457031 10.902343 6.863281 2.714844-20.730468 15.410157-38.8125 33.984375-48.40625-25.121094-42.5625-67.800781-71.808593-116.558594-79.875-26.914062 28.726563-44.746093 64.761719-51.257812 103.585938zm0 0"/><path d="m112.753906 394.328125c12.15625-41.175781 39.691406-76.097656 76.894532-97.527344 3.734374-2.171875 7.53125-4.175781 11.390624-6.007812-16.589843-12.71875-25.902343-32.757813-24.925781-53.640625-49.417969.476562-96.085937 22.808594-127.457031 60.992187 11.429688 37.671875 33.726562 71.132813 64.097656 96.183594zm0 0"/><path d="m310.03125 427.367188c-29.589844-31.117188-46.070312-72.425782-46.03125-115.367188 0-4.335938.164062-8.625.496094-12.871094-19.3125 8.011719-41.324219 6.054688-58.921875-5.234375-24.296875 43.039063-28.285157 94.628907-10.886719 140.890625 38.339844 8.929688 78.464844 6.351563 115.34375-7.417968zm0 0"/><path d="m437.28125 273.03125c-41.746094 10.0625-85.761719 3.675781-122.929688-17.832031-3.734374-2.167969-7.367187-4.457031-10.902343-6.863281-2.699219 20.75-15.394531 38.859374-33.984375 48.464843 25.121094 42.558594 67.800781 71.804688 116.558594 79.871094 26.917968-28.730469 44.746093-64.773437 51.257812-103.601563zm0 0"/><path d="m367.246094 85.671875c-12.15625 41.175781-39.691406 76.097656-76.894532 97.527344-3.734374 2.167969-7.53125 4.167969-11.390624 6.007812 16.578124 12.710938 25.890624 32.730469 24.925781 53.601563 49.417969-.484375 96.085937-22.820313 127.457031-61.007813-11.429688-37.675781-33.726562-71.132812-64.097656-96.183593zm0 0"/></g><path d="m312 240c0 39.765625-32.234375 72-72 72s-72-32.234375-72-72 32.234375-72 72-72 72 32.234375 72 72zm0 0" fill="#bec3d1"/><path d="m440 0h-400c-22.082031.0273438-39.9726562 17.917969-40 40v400c.0273438 22.082031 17.917969 39.972656 40 40h400c22.082031-.027344 39.972656-17.917969 40-40v-400c-.027344-22.082031-17.917969-39.9726562-40-40zm-424 40c0-13.253906 10.746094-24 24-24h113.984375c-63.375 24.511719-113.472656 74.609375-137.984375 137.984375zm224-24c123.710938 0 224 100.289062 224 224s-100.289062 224-224 224-224-100.289062-224-224c.140625-123.652344 100.347656-223.859375 224-224zm-200 448c-13.253906 0-24-10.746094-24-24v-113.984375c24.511719 63.375 74.609375 113.472656 137.984375 137.984375zm424-24c0 13.253906-10.746094 24-24 24h-113.984375c63.375-24.511719 113.472656-74.609375 137.984375-137.984375zm-137.984375-424h113.984375c13.253906 0 24 10.746094 24 24v113.984375c-24.511719-63.375-74.609375-113.472656-137.984375-137.984375zm0 0"/><path d="m48 24c-13.253906 0-24 10.746094-24 24s10.746094 24 24 24 24-10.746094 24-24-10.746094-24-24-24zm0 32c-4.417969 0-8-3.582031-8-8s3.582031-8 8-8 8 3.582031 8 8-3.582031 8-8 8zm0 0"/><path d="m48 408c-13.253906 0-24 10.746094-24 24s10.746094 24 24 24 24-10.746094 24-24-10.746094-24-24-24zm0 32c-4.417969 0-8-3.582031-8-8s3.582031-8 8-8 8 3.582031 8 8-3.582031 8-8 8zm0 0"/><path d="m432 456c13.253906 0 24-10.746094 24-24s-10.746094-24-24-24-24 10.746094-24 24 10.746094 24 24 24zm0-32c4.417969 0 8 3.582031 8 8s-3.582031 8-8 8-8-3.582031-8-8 3.582031-8 8-8zm0 0"/><path d="m432 24c-13.253906 0-24 10.746094-24 24s10.746094 24 24 24 24-10.746094 24-24-10.746094-24-24-24zm0 32c-4.417969 0-8-3.582031-8-8s3.582031-8 8-8 8 3.582031 8 8-3.582031 8-8 8zm0 0"/><path d="m37.265625 212.800781c1.960937 1.828125 4.710937 2.550781 7.320313 1.925781 38.632812-9.273437 79.339843-3.765624 114.117187 15.449219-45.472656 4.953125-87.199219 27.523438-116.222656 62.878907-1.707031 2.070312-2.261719 4.859374-1.480469 7.425781 4.621094 15.171875 10.949219 29.773437 18.863281 43.519531 12.414063 21.550781 28.605469 40.6875 47.800781 56.503906 2.070313 1.726563 4.871094 2.296875 7.449219 1.511719s4.589844-2.8125 5.351563-5.398437c11.277344-38.105469 36.402344-70.609376 70.4375-91.121094-9.855469 22.195312-14.933594 46.21875-14.902344 70.503906.003906 21.039062 3.796875 41.90625 11.199219 61.601562.941406 2.511719 3.074219 4.386719 5.6875 4.992188 39.863281 9.273438 81.574219 6.582031 119.914062-7.738281 2.511719-.9375 4.386719-3.074219 4.992188-5.6875.601562-2.613281-.140625-5.355469-1.984375-7.304688-27.355469-28.820312-42.9375-66.832031-43.679688-106.558593 14.292969 19.621093 32.554688 36.015624 53.597656 48.121093 18.214844 10.519531 38.179688 17.667969 58.929688 21.101563.433594.074218.871094.109375 1.3125.113281 2.21875 0 4.335938-.921875 5.847656-2.542969 27.988282-29.886718 46.527344-67.367187 53.296875-107.746094.441407-2.644531-.472656-5.335937-2.4375-7.164062-1.960937-1.832031-4.707031-2.554688-7.316406-1.929688-38.632813 9.269532-79.339844 3.757813-114.121094-15.449218 24.148438-2.585938 47.480469-10.21875 68.488281-22.402344 18.214844-10.515625 34.386719-24.226562 47.738282-40.476562 1.707031-2.070313 2.261718-4.859376 1.480468-7.425782-4.605468-15.167968-10.914062-29.761718-18.808593-43.503906-12.414063-21.550781-28.605469-40.6875-47.800781-56.503906-2.070313-1.707032-4.855469-2.265625-7.425782-1.484375-2.566406.785156-4.570312 2.800781-5.335937 5.371093-11.265625 38.097657-36.378907 70.597657-70.398438 91.113282 9.828125-22.199219 14.878907-46.21875 14.824219-70.496094-.003906-21.039062-3.796875-41.90625-11.199219-61.601562-.941406-2.511719-3.074219-4.386719-5.6875-4.992188-39.863281-9.257812-81.570312-6.570312-119.914062 7.738281-2.511719.9375-4.386719 3.074219-4.992188 5.6875-.601562 2.613281.140625 5.355469 1.984375 7.304688 27.355469 28.820312 42.9375 66.832031 43.679688 106.558593-14.292969-19.621093-32.554688-36.015624-53.597656-48.121093-18.214844-10.519531-38.179688-17.667969-58.929688-21.101563-2.636719-.441406-5.320312.460938-7.160156 2.398438-28.011719 29.886718-46.574219 67.378906-53.351563 107.777344-.4375 2.640624.476563 5.324218 2.433594 7.152343zm202.734375-36.800781c31.207031-.03125 57.878906 22.460938 63.113281 53.226562 5.234375 30.761719-12.5 60.8125-41.960937 71.101563l-.113282.046875c-24.042968 8.453125-50.808593 1.839844-68.144531-16.84375-17.332031-18.679688-21.933593-45.867188-11.707031-69.210938s33.328125-38.394531 58.8125-38.320312zm-131.007812 204.398438c-23.636719-22.0625-41.3125-49.742188-51.390626-80.460938 11.578126-13.359375 25.308594-24.691406 40.613282-33.539062 19.050781-11.039063 40.207031-17.960938 62.097656-20.320313 1.328125 17.476563 8.390625 34.027344 20.09375 47.074219-32.785156 20.394531-57.898438 51.074218-71.414062 87.246094zm91.726562 47.523437c-13.085938-37.839844-11.390625-79.226563 4.738281-115.875 15.777344 7.65625 33.648438 9.863281 50.816407 6.28125 1.292968 38.539063 15.285156 75.566406 39.804687 105.328125-30.921875 9.417969-63.71875 10.886719-95.359375 4.265625zm226.402344-144.65625c-7.304688 31.5-22.445313 60.644531-44.015625 84.734375-39.308594-7.535156-74.269531-29.761719-97.769531-62.160156 14.359374-9.914063 25.097656-24.238282 30.59375-40.800782 34.027343 18.171876 73.109374 24.578126 111.160156 18.226563zm-56.113282-183.664063c23.636719 22.0625 41.3125 49.742188 51.390626 80.460938-11.578126 13.359375-25.308594 24.691406-40.613282 33.539062-19.050781 11.042969-40.203125 17.964844-62.097656 20.320313-1.328125-17.476563-8.390625-34.027344-20.09375-47.074219 32.785156-20.394531 57.898438-51.074218 71.414062-87.246094zm-91.726562-47.523437c13.085938 37.839844 11.390625 79.226563-4.738281 115.875-15.777344-7.65625-33.648438-9.863281-50.816407-6.28125-1.292968-38.539063-15.285156-75.566406-39.804687-105.328125 30.921875-9.417969 63.71875-10.886719 95.359375-4.265625zm-205.5625 91.921875c6.617188-11.433594 14.390625-22.15625 23.203125-32 17.347656 3.347656 34.015625 9.566406 49.316406 18.398438 19.027344 11.027343 35.53125 25.925781 48.441407 43.730468-14.355469 9.917969-25.089844 24.238282-30.582032 40.800782-34.042968-18.164063-73.132812-24.558594-111.1875-18.195313 4.28125-18.511719 11.296875-36.285156 20.808594-52.734375zm0 0"/></svg>