<?xml version="1.0" encoding="iso-8859-1"?>
<!-- Generator: Adobe Illustrator 19.0.0, SVG Export Plug-In . SVG Version: 6.00 Build 0)  -->
<svg version="1.1" id="Layer_1" xmlns="http://www.w3.org/2000/svg" xmlns:xlink="http://www.w3.org/1999/xlink" x="0px" y="0px"
	 viewBox="0 0 512 512" style="enable-background:new 0 0 512 512;" xml:space="preserve">
<circle style="fill:#FF7A53;" cx="255.996" cy="255.996" r="255.996"/>
<path style="fill:#FF4F19;" d="M512,255.999c0-26.404-4.001-51.874-11.424-75.839L392.865,72.449H119.137v136.355h-52.26v94.393
	l52.26,50.644v85.71l61.025,61.025C204.127,507.999,229.596,512,256.001,512C397.385,512,512,397.385,512,255.999z"/>
<rect x="119.138" y="72.452" style="fill:#FFFFFF;" width="273.728" height="367.099"/>
<rect x="255.996" y="72.452" style="fill:#D8D8DA;" width="136.869" height="367.099"/>
<rect x="142.365" y="95.116" style="fill:#00C379;" width="227.273" height="321.772"/>
<rect x="255.996" y="95.116" style="fill:#008C49;" width="113.641" height="321.772"/>
<polygon style="fill:#FFFFFF;" points="255.999,255.999 168.773,176.949 168.773,208.804 66.877,208.804 66.877,303.196 
	168.773,303.196 168.773,335.051 "/>
<circle style="fill:#D8D8DA;" cx="327.048" cy="255.996" r="15.41"/>
<g>
</g>
<g>
</g>
<g>
</g>
<g>
</g>
<g>
</g>
<g>
</g>
<g>
</g>
<g>
</g>
<g>
</g>
<g>
</g>
<g>
</g>
<g>
</g>
<g>
</g>
<g>
</g>
<g>
</g>
</svg>
