<svg height="512pt" viewBox="0 0 512 512" width="512pt" xmlns="http://www.w3.org/2000/svg"><path d="m512 256c0 141.386719-114.613281 256-256 256s-256-114.613281-256-256 114.613281-256 256-256 256 114.613281 256 256zm0 0" fill="#fbf24a"/><path d="m512 256c0-5.390625-.1875-10.734375-.515625-16.042969l-92.296875-92.296875-80.371094-39.535156-44.03125-44.125-230.785156 230.785156 44.125 44.03125 39.535156 80.371094 92.292969 92.296875c5.3125.328125 10.65625.515625 16.046875.515625 141.386719 0 256-114.613281 256-256zm0 0" fill="#fbd141"/><path d="m448 294.785156v-77.570312l-41.546875-10.386719c-2.515625-7.691406-5.628906-15.195313-9.304687-22.433594l22.039062-36.734375-54.847656-54.847656-36.734375 22.039062c-7.238281-3.675781-14.742188-6.789062-22.433594-9.304687l-10.386719-41.546875h-38.785156l-45 112.5h45c43.90625 0 79.5 35.59375 79.5 79.5s-35.59375 79.5-79.5 79.5h-45l45 112.5h38.785156l10.386719-41.546875c7.691406-2.515625 15.195313-5.628906 22.433594-9.304687l36.734375 22.042968 54.851562-54.847656-22.042968-36.738281c3.675781-7.234375 6.789062-14.742188 9.304687-22.433594zm0 0" fill="#636363"/><path d="m176.5 256c0-43.90625 35.59375-79.5 79.5-79.5v-112.5h-38.785156l-10.386719 41.546875c-7.691406 2.515625-15.195313 5.628906-22.433594 9.304687l-36.734375-22.039062-54.847656 54.847656 22.039062 36.734375c-3.675781 7.234375-6.789062 14.742188-9.304687 22.433594l-41.546875 10.386719v77.570312l41.546875 10.386719c2.515625 7.691406 5.628906 15.195313 9.304687 22.433594l-22.039062 36.734375 54.847656 54.847656 36.734375-22.042969c7.234375 3.679688 14.742188 6.792969 22.433594 9.304688l10.386719 41.550781h38.785156v-112.5c-43.90625 0-79.5-35.59375-79.5-79.5zm0 0" fill="#828282"/><path d="m256 142.75-22.5 33.75h22.5c43.90625 0 79.5 35.59375 79.5 79.5s-35.59375 79.5-79.5 79.5h-22.5l22.5 33.75c62.546875 0 113.25-50.703125 113.25-113.25s-50.703125-113.25-113.25-113.25zm0 0" fill="#242424"/><path d="m176.5 256c0-43.90625 35.59375-79.5 79.5-79.5v-33.75c-62.546875 0-113.25 50.703125-113.25 113.25s50.703125 113.25 113.25 113.25v-33.75c-43.90625 0-79.5-35.59375-79.5-79.5zm0 0" fill="#434343"/><path d="m256 165.25-15 16.875 15 16.875c31.480469 0 57 25.519531 57 57s-25.519531 57-57 57l-15 16.875 15 16.875c50.121094 0 90.75-40.628906 90.75-90.75s-40.628906-90.75-90.75-90.75zm0 0" fill="#3f3f3f"/><path d="m199 256c0-31.480469 25.519531-57 57-57v-33.75c-50.121094 0-90.75 40.628906-90.75 90.75s40.628906 90.75 90.75 90.75v-33.75c-31.480469 0-57-25.519531-57-57zm0 0" fill="#636363"/></svg>