<?xml version="1.0" encoding="iso-8859-1"?>
<!-- Generator: Adobe Illustrator 21.0.0, SVG Export Plug-In . SVG Version: 6.00 Build 0)  -->
<svg xmlns="http://www.w3.org/2000/svg" xmlns:xlink="http://www.w3.org/1999/xlink" version="1.1" id="Capa_1" x="0px" y="0px" viewBox="0 0 512 512" style="enable-background:new 0 0 512 512;" xml:space="preserve" width="512" height="512">
<g>
	<g>
		<g>
			<g>
				<g>
					<g>
						<g>
							<g>
								<g>
									<g>
										<g>
											<g>
												<g>
													<circle style="fill:#FF0335;" cx="256" cy="256" r="256"/>
												</g>
											</g>
										</g>
									</g>
								</g>
							</g>
						</g>
					</g>
				</g>
			</g>
		</g>
	</g>
	<path style="fill:#990011;" d="M510.536,283.417L281.393,55.507c-6.18-7.072-15.264-11.54-25.393-11.54   c-18.621,0-33.717,15.095-33.717,33.717c0,4.995,1.095,9.731,3.044,13.995c-55.53,11.202-97.344,60.264-97.344,119.095v137.5   c-22.198,4.22-38.985,23.716-38.985,47.142v2.575l106.895,106.895C215.173,509.525,235.296,512,256,512   C388.122,512,496.854,411.908,510.536,283.417z"/>
	<g>
		<circle style="fill:#FFAA20;" cx="256" cy="77.683" r="33.717"/>
		<path style="fill:#FF8900;" d="M289.72,77.68c0,4.99-1.09,9.73-3.04,14c-5.31,11.63-17.05,19.72-30.68,19.72V43.97    C274.62,43.97,289.72,59.06,289.72,77.68z"/>
		<circle style="fill:#FFE670;" cx="256" cy="397.99" r="43.726"/>
		<g>
			<path style="fill:#FFD400;" d="M299.73,397.99c0,24.15-19.58,43.73-43.73,43.73v-87.46c9.97,0,19.16,3.34,26.51,8.96     C292.98,371.2,299.73,383.81,299.73,397.99z"/>
		</g>
		<path style="fill:#FFD400;" d="M384.017,363.22H127.982V210.773c0-67.103,54.397-121.5,121.5-121.5h13.035    c67.103,0,121.5,54.397,121.5,121.5V363.22z"/>
		<path style="fill:#FFAA20;" d="M384.02,210.77v152.45H256V89.27h6.52c8.27,0,16.35,0.83,24.16,2.41    C342.21,102.88,384.02,151.94,384.02,210.77z"/>
		<path style="fill:#FFAA20;" d="M423.002,397.99H88.998v-2.575c0-26.51,21.49-48,48-48h238.005c26.51,0,48,21.49,48,48V397.99z"/>
		<path style="fill:#FF8900;" d="M423,395.42v2.57H256v-50.57h119c3.08,0,6.1,0.29,9.02,0.85C406.22,352.48,423,371.99,423,395.42z"/>
	</g>
</g>















</svg>
