<svg id="Capa_1" enable-background="new 0 0 501 501" height="512" viewBox="0 0 501 501" width="512" xmlns="http://www.w3.org/2000/svg"><g><path d="m5.5 256c0-135.133 109.404-244.713 244.47-244.999 135.768-.288 245.254 108.724 245.53 244.491.126 62.22-22.942 119.05-61.041 162.327-12.377 14.059-30.155 22.181-48.885 22.181h-285.533c-7.463 0-14.668-2.854-20.028-8.048-45.952-44.533-74.513-106.907-74.513-175.952z" fill="#f5c02c"/><path d="m49.5 260h-43.968c-.021-1.331-.032-2.664-.032-4 0-8.782.462-17.457 1.364-26h42.636c8.284 0 15 6.716 15 15s-6.716 15-15 15zm420-30h-110c-8.284 0-15 6.716-15 15s6.716 15 15 15h110c8.284 0 15-6.716 15-15s-6.716-15-15-15zm-214.983-134.275c.38 8.068 7.33 14.275 15.407 14.275h109.576c8.525 0 15.389-7.111 14.983-15.726-.38-8.067-7.33-14.274-15.407-14.274h-29.576c-8.284 0-15-6.716-15-15s-6.716-15-15-15h-89.576c-8.077 0-15.027 6.207-15.407 14.274-.406 8.615 6.458 15.726 14.983 15.726h40c-8.525 0-15.389 7.111-14.983 15.725zm-80.017 219.275c0-8.284-6.716-15-15-15h-110c-8.284 0-15 6.716-15 15s6.716 15 15 15h110c8.284 0 15-6.716 15-15zm255-175c-8.284 0-15 6.716-15 15s6.716 15 15 15h50.602c-3.881-10.351-8.365-20.369-13.552-30z" fill="#f3d373"/><path d="m274.5 140h-90c-5.523 0-10-4.477-10-10v-50c0-5.523 4.477-10 10-10h90c5.523 0 10 4.477 10 10v50c0 5.523-4.477 10-10 10z" fill="#314dc8"/><path d="m324.5 270h-160c-5.523 0-10-4.477-10-10v-150c0-5.523 4.477-10 10-10h160c5.523 0 10 4.477 10 10v150c0 5.523-4.477 10-10 10z" fill="#0280e3"/><path d="m244.5 260h-70v-120c0-5.523 4.477-10 10-10h50c5.523 0 10 4.477 10 10z" fill="#174550"/><path d="m424.5 200v60h-15v-60zm-62.5 0c-4.142 0-7.5 3.358-7.5 7.5v45c0 4.142 3.358 7.5 7.5 7.5s7.5-3.358 7.5-7.5v-45c0-4.142-3.358-7.5-7.5-7.5zm-60 0c-4.142 0-7.5 3.358-7.5 7.5v45c0 4.142 3.358 7.5 7.5 7.5s7.5-3.358 7.5-7.5v-45c0-4.142-3.358-7.5-7.5-7.5zm-60 0c-4.142 0-7.5 3.358-7.5 7.5v45c0 4.142 3.358 7.5 7.5 7.5s7.5-3.358 7.5-7.5v-45c0-4.142-3.358-7.5-7.5-7.5z" fill="#91cefb"/><path d="m434.5 260v157.772c-9.627 10.941-20.214 21.017-31.63 30.095-1.753 1.394-3.939 2.133-6.179 2.133h-242.191c-5.523 0-10-4.477-10-10v-180c0-5.523 4.477-10 10-10h270c5.523 0 10 4.477 10 10zm10-70h-290c-5.523 0-10 4.477-10 10 0 5.523 4.477 10 10 10h290c5.523 0 10-4.477 10-10 0-5.523-4.477-10-10-10z" fill="#fff5f5"/><path d="m194.5 10v426c0 5.523-4.477 10-10 10h-83.649c-5.652-4.366-11.107-8.974-16.351-13.807v-422.193c0-5.523 4.477-10 10-10h90c5.523 0 10 4.477 10 10z" fill="#0191f8"/><path d="m184.5 450h-60c-5.523 0-10-4.477-10-10v-430c0-5.523 4.477-10 10-10h60c5.523 0 10 4.477 10 10v430c0 5.523-4.477 10-10 10z" fill="#49b4fa"/><path d="m384.5 440h-140c-5.523 0-10-4.477-10-10v-130c0-5.523 4.477-10 10-10h140c5.523 0 10 4.477 10 10v130c0 5.523-4.477 10-10 10z" fill="#6e61b5"/><path d="m254.5 370v-22.5c0-2.761 2.239-5 5-5h135v32.5h-135c-2.761 0-5-2.239-5-5zm0 60c0 5.523 4.477 10 10 10h120c5.523 0 10-4.477 10-10v-40h-135c-2.761 0-5 2.239-5 5zm130-140h-120c-5.523 0-10 4.477-10 10v22.5c0 2.761 2.239 5 5 5h135v-27.5c0-5.523-4.477-10-10-10z" fill="#968dca"/><path d="m152 237.5h-30c-2.761 0-5-2.239-5-5v-110c0-2.761 2.239-5 5-5h30c2.761 0 5 2.239 5 5v110c0 2.761-2.239 5-5 5z" fill="#4f66cf"/><path d="m152 237.5h-12.5c-2.761 0-5-2.239-5-5v-110c0-2.761 2.239-5 5-5h12.5c2.761 0 5 2.239 5 5v110c0 2.761-2.239 5-5 5z" fill="#6c7fd7"/><path d="m152 110h-30c-6.893 0-12.5 5.607-12.5 12.5v110c0 6.893 5.607 12.5 12.5 12.5h30c6.893 0 12.5-5.607 12.5-12.5v-110c0-6.893-5.607-12.5-12.5-12.5zm-2.5 15v25h-25v-25zm-25 105v-65h25v65zm35-180h-40c-2.761 0-5-2.239-5-5v-10c0-2.761 2.239-5 5-5h40c2.761 0 5 2.239 5 5v10c0 2.761-2.239 5-5 5z" fill="#174550"/><path d="m174.5 440h-70v-130c0-5.523 4.477-10 10-10h50c5.523 0 10 4.477 10 10z" fill="#2b6c7e"/><path d="m174.5 440h-50v-130c0-5.523 4.477-10 10-10h30c5.523 0 10 4.477 10 10z" fill="#328091"/><path d="m119.5 390c-2.761 0-5-2.239-5-5v-30c0-2.761 2.239-5 5-5 2.761 0 5 2.239 5 5v30c0 2.761-2.239 5-5 5z" fill="#fff5f5"/><path d="m78.021 430h201.861c42.813 0 47.296 62.685 4.896 68.621-11.2 1.568-22.645 2.379-34.278 2.379-67.268 0-128.204-27.11-172.479-71z" fill="#a62b2b"/><path d="m283.739 498.764c-24.917-3.38-48.643-10.505-70.594-20.791-24.364-11.417-16.206-47.973 10.701-47.973h199.133c-36.855 36.534-85.254 61.441-139.24 68.764z" fill="#c92c2c"/></g></svg>