<svg height="512pt" viewBox="0 0 512.01797 512" width="512pt" xmlns="http://www.w3.org/2000/svg"><path d="m264.828125 467.871094h-247.171875c-9.738281-.027344-17.6289062-7.917969-17.65625-17.65625v-397.242188c.0273438-9.738281 7.917969-17.625 17.65625-17.652344h317.792969c9.738281.027344 17.625 7.914063 17.652343 17.652344v361.933594zm0 0" fill="#7f5b53"/><path d="m256 70.628906h52.964844c4.875 0 8.828125 3.953125 8.828125 8.828125v344.277344c0 4.875-3.953125 8.828125-8.828125 8.828125h-264.828125c-4.875 0-8.828125-3.953125-8.828125-8.828125v-344.277344c0-4.875 3.953125-8.828125 8.828125-8.828125zm0 0" fill="#f9eab0"/><path d="m141.242188 35.320312c0-19.503906 15.808593-35.3124995 35.308593-35.3124995 19.503907 0 35.3125 15.8085935 35.3125 35.3124995" fill="#ecf0f1"/><path d="m97.101562 35.320312h158.898438v35.308594c0 9.75-7.90625 17.65625-17.65625 17.65625h-123.585938c-9.75 0-17.65625-7.90625-17.65625-17.65625zm0 0" fill="#bdc3c7"/><g fill="#d25627"><path d="m70.621094 361.941406h35.308594c4.875 0 8.828124 3.949219 8.828124 8.828125v17.652344c0 4.875-3.953124 8.828125-8.828124 8.828125h-35.308594c-4.875 0-8.828125-3.953125-8.828125-8.828125v-17.652344c0-4.878906 3.953125-8.828125 8.828125-8.828125zm0 0"/><path d="m70.621094 291.320312h35.308594c4.875 0 8.828124 3.953126 8.828124 8.828126v17.652343c0 4.875-3.953124 8.828125-8.828124 8.828125h-35.308594c-4.875 0-8.828125-3.953125-8.828125-8.828125v-17.652343c0-4.875 3.953125-8.828126 8.828125-8.828126zm0 0"/><path d="m70.621094 220.699219h35.308594c4.875 0 8.828124 3.953125 8.828124 8.828125v17.652344c0 4.878906-3.953124 8.828124-8.828124 8.828124h-35.308594c-4.875 0-8.828125-3.949218-8.828125-8.828124v-17.652344c0-4.875 3.953125-8.828125 8.828125-8.828125zm0 0"/><path d="m158.898438 361.941406h35.308593c4.875 0 8.828125 3.949219 8.828125 8.828125v17.652344c0 4.875-3.953125 8.828125-8.828125 8.828125h-35.308593c-4.878907 0-8.828126-3.953125-8.828126-8.828125v-17.652344c0-4.878906 3.949219-8.828125 8.828126-8.828125zm0 0"/><path d="m247.171875 361.941406h26.484375c4.875 0 8.828125 3.949219 8.828125 8.828125v17.652344c0 4.875-3.953125 8.828125-8.828125 8.828125h-26.484375c-4.875 0-8.828125-3.953125-8.828125-8.828125v-17.652344c0-4.878906 3.953125-8.828125 8.828125-8.828125zm0 0"/><path d="m158.898438 291.320312h26.480468c4.875 0 8.828125 3.953126 8.828125 8.828126v17.652343c0 4.875-3.953125 8.828125-8.828125 8.828125h-26.480468c-4.878907 0-8.828126-3.953125-8.828126-8.828125v-17.652343c0-4.875 3.949219-8.828126 8.828126-8.828126zm0 0"/><path d="m158.898438 220.699219h26.480468c4.875 0 8.828125 3.953125 8.828125 8.828125v17.652344c0 4.878906-3.953125 8.828124-8.828125 8.828124h-26.480468c-4.878907 0-8.828126-3.949218-8.828126-8.828124v-17.652344c0-4.875 3.949219-8.828125 8.828126-8.828125zm0 0"/><path d="m70.621094 150.078125h35.308594c4.875 0 8.828124 3.953125 8.828124 8.828125v17.65625c0 4.875-3.953124 8.824219-8.828124 8.824219h-35.308594c-4.875 0-8.828125-3.949219-8.828125-8.824219v-17.65625c0-4.875 3.953125-8.828125 8.828125-8.828125zm0 0"/></g><path d="m220.691406 132.421875h-17.65625c-4.875 0-8.828125-3.953125-8.828125-8.828125s3.953125-8.824219 8.828125-8.824219h17.65625c4.875 0 8.824219 3.949219 8.824219 8.824219s-3.949219 8.828125-8.824219 8.828125zm0 0" fill="#802f34"/><path d="m282.484375 132.421875h-26.484375c-4.875 0-8.828125-3.953125-8.828125-8.828125s3.953125-8.824219 8.828125-8.824219h26.484375c4.875 0 8.824219 3.949219 8.824219 8.824219s-3.949219 8.828125-8.824219 8.828125zm0 0" fill="#802f34"/><path d="m282.484375 167.734375h-105.933594c-4.875 0-8.828125-3.953125-8.828125-8.828125s3.953125-8.828125 8.828125-8.828125h105.933594c4.875 0 8.824219 3.953125 8.824219 8.828125s-3.949219 8.828125-8.824219 8.828125zm0 0" fill="#802f34"/><path d="m282.484375 203.042969h-26.484375c-4.875 0-8.828125-3.953125-8.828125-8.828125s3.953125-8.828125 8.828125-8.828125h26.484375c4.875 0 8.824219 3.953125 8.824219 8.828125s-3.949219 8.828125-8.824219 8.828125zm0 0" fill="#802f34"/><path d="m346.484375 388.238281-93.398437 93.484375c-4.445313 4.445313-6.183594 10.925782-4.554688 17 1.628906 6.074219 6.371094 10.820313 12.445312 12.449219 6.074219 1.628906 12.558594-.109375 17.003907-4.554687l101.605469-100.539063zm0 0" fill="#e57e25"/><path d="m388.414062 394.515625 47.84375-46.089844-24.980468-24.984375-57.910156 56.152344zm0 0" fill="#95a5a5"/><path d="m481.820312 252.917969-35.3125 35.3125c-3.445312 3.445312-3.445312 9.035156 0 12.480469l12.527344 12.4375c3.445313 3.449218 9.035156 3.449218 12.480469 0l35.3125-35.308594c9.691406 20.230468 5.5625 44.371094-10.300781 60.234375-15.859375 15.859375-40.003906 19.988281-60.234375 10.296875-10.976563-5.152344-19.808594-13.984375-24.960938-24.964844-9.691406-20.230469-5.566406-44.371094 10.296875-60.234375 15.859375-15.859375 40.003906-19.988281 60.234375-10.296875zm0 0" fill="#bdc3c7"/><path d="m356.394531 398.140625-56.175781-56.175781-43.699219-31.214844-31.203125-31.214844 37.453125-37.449218 31.207031 31.207031 31.214844 43.695312 56.179688 56.179688zm0 0" fill="#bdc3c7"/><path d="m487.476562 491.765625-12.480468 12.484375c-4.96875 4.96875-11.703125 7.757812-18.730469 7.757812-7.023437 0-13.757813-2.789062-18.726563-7.757812l-74.902343-74.902344-6.242188-31.214844 24.957031-24.964843 31.214844 6.242187 74.902344 74.902344c4.96875 4.964844 7.761719 11.699219 7.761719 18.726562 0 7.023438-2.789063 13.761719-7.753907 18.726563zm0 0" fill="#955ba5"/></svg>